<?xml version="1.0" standalone="no"?>
<!DOCTYPE svg PUBLIC "-//W3C//DTD SVG 20010904//EN" "http://www.w3.org/TR/2001/REC-SVG-20010904/DTD/svg10.dtd">
<svg xmlns="http://www.w3.org/2000/svg" version="1.0" width="608" height="227" viewBox="16 207 608 227" preserveAspectRatio="xMidYMid meet">
<metadata>
Created by potrace 1.16, written by Peter Selinger 2001-2019
</metadata>
<g transform="translate(0.000000,640.000000) scale(0.100000,-0.100000)" fill="#000000" stroke="none">
<path d="M3164 4310 c-12 -4 -30 -19 -41 -33 -13 -18 -26 -24 -44 -21 -28 5 -56 -14 -61 -41 -1 -11 -12 -22 -23 -25 -11 -3 -24 -15 -29 -27 -9 -18 -20 -21 -91 -25 -86 -4 -118 -17 -293 -113 -74 -41 -125 -46 -142 -14 -8 14 -8 24 -1 33 7 9 7 16 -1 24 -20 20 -57 14 -85 -14 -20 -20 -24 -31 -18 -52 4 -15 7 -39 6 -54 0 -28 43 -73 60 -62 5 3 9 1 9 -4 0 -14 -56 -32 -97 -32 -43 0 -72 15 -82 43 -9 22 -9 22 -21 -5 -11 -24 -11 -31 5 -48 10 -11 23 -20 29 -20 6 0 3 5 -6 11 -10 5 -18 15 -18 21 0 6 7 5 17 -3 9 -8 41 -16 72 -19 37 -3 55 -9 54 -18 -4 -17 6 -15 52 9 22 12 35 15 29 8 -7 -8 -10 -22 -9 -32 4 -25 -56 -68 -105 -74 -44 -6 -49 0 -22 30 17 19 16 19 -25 12 -46 -7 -87 1 -78 16 3 5 0 6 -8 3 -18 -6 -32 12 -17 21 7 4 1 18 -14 36 -35 42 -42 82 -19 122 15 25 27 33 54 35 23 2 40 -3 48 -12 11 -13 8 -14 -23 -9 -47 7 -76 -17 -76 -62 0 -30 39 -96 40 -68 0 6 -4 15 -10 18 -18 11 -11 64 10 75 26 14 60 4 60 -18 1 -15 2 -15 15 1 10 14 11 26 3 49 -23 64 -102 58 -138 -11 -15 -30 -20 -33 -25 -18 -4 9 -16 17 -26 17 -14 0 -19 -7 -19 -30 0 -28 -1 -29 -27 -19 -38 14 -80 2 -105 -32 -39 -52 -137 -86 -166 -57 -16 16 -15 40 1 36 7 -2 14 2 15 7 1 6 -6 10 -15 10 -12 0 -19 -9 -21 -27 -3 -24 -6 -27 -22 -18 -10 5 -22 19 -25 31 -4 11 -9 18 -12 16 -2 -3 0 -15 7 -26 13 -26 10 -26 -32 -2 -45 26 -89 34 -122 21 -29 -11 -33 -39 -7 -48 10 -3 12 0 8 12 -15 39 90 36 139 -5 7 -6 17 -8 23 -5 5 3 11 1 13 -6 2 -6 31 -13 66 -16 50 -4 67 -1 96 18 20 12 36 17 36 12 0 -11 50 -23 63 -15 4 3 3 10 -2 17 -31 38 61 35 121 -3 87 -55 91 -55 -273 -48 -184 4 -425 7 -536 7 -178 0 -202 2 -196 15 8 23 -26 55 -57 55 -37 0 -56 -26 -63 -87 -3 -28 -12 -61 -19 -73 -15 -24 -55 -37 -70 -22 -13 13 -2 46 12 37 6 -4 8 -11 5 -16 -4 -5 -1 -9 4 -9 17 0 13 30 -5 37 -24 9 -46 -24 -33 -48 22 -41 82 -17 110 44 l19 42 0 -41 c0 -22 -7 -49 -15 -60 -8 -10 -15 -15 -15 -10 0 5 -9 -3 -21 -18 -12 -16 -30 -26 -45 -26 -31 0 -84 50 -84 79 0 29 -28 26 -40 -4 -12 -32 -16 -31 -35 5 -19 37 -19 70 1 98 19 28 32 28 36 0 4 -32 50 -36 77 -9 30 30 26 67 -9 103 -27 27 -36 30 -72 25 -25 -3 -51 -16 -69 -33 -31 -30 -54 -93 -44 -123 4 -15 1 -17 -19 -14 -40 8 -39 -14 2 -70 45 -60 76 -84 134 -101 36 -10 41 -15 43 -44 3 -40 -11 -41 -47 -3 -53 55 -136 47 -191 -18 -15 -18 -27 -36 -27 -41 0 -5 -15 -6 -34 -3 -26 4 -36 1 -48 -16 -9 -13 -21 -19 -31 -15 -23 8 -54 -12 -61 -41 -4 -14 -12 -25 -19 -23 -7 1 -24 -1 -39 -5 -27 -7 -33 -19 -29 -58 1 -10 -9 -19 -26 -22 -15 -4 -45 -22 -65 -41 l-37 -35 37 -37 c20 -20 48 -40 62 -44 18 -4 26 -14 28 -33 4 -32 43 -62 72 -54 16 4 20 0 20 -19 0 -26 33 -49 57 -40 10 4 22 -2 31 -15 12 -17 22 -20 48 -16 25 4 34 2 34 -8 0 -7 15 -29 33 -48 55 -59 136 -62 188 -6 35 38 47 37 44 -3 -2 -29 -7 -34 -43 -44 -57 -17 -85 -38 -132 -100 -43 -57 -44 -74 -6 -74 19 0 22 -4 19 -25 -7 -34 31 -107 66 -128 70 -41 151 -1 151 73 0 53 -91 83 -98 33 -4 -30 -18 -29 -38 2 -18 28 -13 77 11 109 14 18 15 18 24 -8 12 -30 41 -35 41 -7 0 29 41 70 76 77 28 5 34 2 53 -30 25 -40 39 -49 20 -13 -11 20 -11 21 4 8 20 -16 38 -76 30 -98 -4 -11 -10 -6 -20 18 -20 48 -42 69 -73 69 -37 0 -55 -22 -40 -50 6 -12 19 -20 28 -18 19 4 30 38 12 38 -6 0 -8 -4 -5 -10 7 -11 -18 -14 -28 -4 -11 11 5 34 25 34 49 0 78 -45 78 -120 0 -43 24 -70 63 -70 28 0 59 34 50 56 -4 12 79 14 533 14 481 0 536 -2 517 -15 -20 -14 -25 -37 -10 -51 10 -10 -3 -56 -21 -76 -33 -39 -43 -9 -15 45 18 35 25 60 15 55 -59 -32 -89 -40 -114 -30 -20 7 -28 7 -28 -1 0 -8 -3 -8 -11 0 -12 12 -3 37 11 28 5 -3 11 -1 14 4 3 5 -1 11 -9 15 -8 3 -17 1 -20 -5 -4 -5 -10 -7 -15 -4 -5 3 -11 1 -15 -4 -3 -6 -22 -2 -46 11 -51 26 -141 21 -193 -12 -20 -11 -49 -25 -66 -30 -40 -11 -82 3 -74 25 3 8 2 15 -4 15 -5 0 -12 -9 -15 -21 -4 -15 1 -22 19 -30 38 -14 56 -11 110 16 59 30 57 30 44 6 -14 -26 -13 -64 2 -79 17 -17 58 -15 58 3 0 18 -17 20 -23 3 -6 -21 -37 10 -37 38 0 21 34 64 50 64 3 0 6 -12 5 -27 0 -20 5 -28 18 -28 9 0 17 5 16 10 0 6 -7 9 -15 9 -24 -3 -16 26 11 38 38 17 95 -5 149 -57 36 -36 52 -45 80 -45 19 0 38 5 41 10 12 20 21 9 17 -20 -5 -34 15 -41 41 -15 13 13 16 11 27 -16 27 -64 110 -80 139 -27 13 22 13 31 2 55 -13 28 -13 28 -22 6 -5 -15 -17 -23 -32 -23 -30 0 -47 18 -47 50 0 14 5 31 12 38 9 9 9 12 0 12 -6 0 -16 -9 -22 -20 -31 -58 22 -136 75 -112 32 15 32 7 1 -13 -22 -15 -27 -15 -54 -1 -34 18 -42 33 -42 86 0 26 8 48 24 67 12 15 21 33 19 39 -9 26 61 49 104 33 27 -10 39 4 18 21 -11 9 -12 16 -5 26 9 10 19 10 55 -3 52 -17 115 -81 93 -94 -7 -4 -17 -4 -22 1 -13 13 -53 13 -61 0 -3 -5 -27 -10 -53 -10 -27 0 -57 -7 -70 -16 -17 -12 -22 -12 -22 -2 0 18 38 40 53 32 9 -5 9 -4 1 5 -9 10 -17 9 -37 -4 -30 -19 -40 -51 -24 -79 l12 -21 3 21 c6 40 82 56 149 32 36 -13 44 -28 15 -28 -25 0 -56 -35 -48 -55 3 -8 2 -25 -3 -38 -11 -29 2 -62 34 -83 21 -14 30 -15 51 -5 20 9 24 14 15 25 -14 17 -5 43 18 51 26 8 77 -11 160 -59 107 -63 178 -86 266 -86 56 0 74 -4 79 -15 3 -8 17 -20 31 -27 14 -6 25 -17 25 -24 0 -22 30 -44 60 -44 19 0 29 -6 33 -19 2 -11 23 -28 46 -39 41 -20 41 -20 81 -1 22 11 44 28 50 39 6 11 21 20 35 20 26 0 55 24 55 46 0 8 5 14 10 14 6 0 23 12 37 26 21 21 33 25 62 21 82 -10 166 17 326 108 84 47 124 55 146 29 10 -12 10 -20 1 -35 -10 -15 -8 -20 9 -30 49 -26 114 36 91 86 -6 13 -8 32 -5 44 7 26 -13 51 -38 51 -30 0 -22 17 12 29 69 24 139 8 139 -31 0 -26 14 -14 24 19 5 17 1 29 -18 48 -14 14 -31 25 -38 25 -7 -1 -1 -8 15 -16 15 -8 27 -22 27 -30 0 -13 -2 -13 -22 0 -12 9 -37 16 -54 16 -19 0 -34 6 -38 15 -3 8 -12 12 -21 9 -8 -3 -15 -1 -15 6 0 6 -5 8 -11 4 -8 -5 -8 -9 1 -14 8 -5 7 -9 -5 -13 -11 -5 -14 -3 -9 5 5 8 2 9 -9 5 -10 -4 -24 -10 -32 -13 -13 -5 -15 -1 -11 21 3 15 6 28 8 30 45 34 89 55 115 55 32 0 43 -12 23 -25 -22 -14 -8 -23 33 -23 49 1 91 -17 83 -37 -2 -7 2 -19 11 -27 32 -26 44 -73 30 -115 -16 -50 -55 -73 -91 -53 -14 7 -26 17 -26 22 0 5 9 4 19 -2 29 -15 39 -13 66 15 30 30 32 74 5 106 -10 13 -19 19 -20 12 0 -6 5 -15 10 -18 14 -9 13 -58 -2 -73 -20 -20 -58 -14 -67 10 l-8 22 -12 -21 c-16 -31 -14 -50 9 -73 63 -63 166 24 135 113 -9 25 -9 39 -2 44 5 3 7 1 3 -5 -3 -6 -2 -13 4 -17 5 -3 10 0 10 8 0 12 7 11 37 -4 21 -10 49 -19 63 -18 22 1 20 2 -9 11 -30 8 -121 65 -121 75 0 2 239 3 530 3 l530 0 0 -23 c0 -30 18 -47 50 -47 43 0 57 19 62 85 3 33 3 52 1 43 -5 -19 -18 -24 -27 -9 -9 14 18 86 31 86 7 0 20 10 28 23 19 26 44 28 84 7 30 -15 41 -33 41 -66 0 -27 28 -24 41 5 30 65 99 -30 73 -98 -4 -9 -15 -21 -26 -27 -20 -11 -20 -10 -4 12 20 30 21 89 0 115 -15 19 -16 19 -8 -1 17 -46 16 -86 -1 -105 -23 -26 -33 -25 -37 3 -6 45 -69 31 -89 -20 -18 -48 32 -103 93 -103 60 0 118 69 118 140 0 23 4 30 20 30 31 0 34 24 8 55 -56 69 -100 105 -145 118 -45 13 -46 15 -47 53 -1 36 -3 39 -28 36 -36 -4 -35 4 2 23 35 18 48 19 33 4 -9 -9 -3 -21 24 -50 42 -44 91 -64 131 -54 39 10 91 52 98 81 6 22 10 24 39 18 27 -5 36 -2 46 15 9 14 20 19 35 15 27 -7 68 30 60 52 -4 12 -1 14 15 9 12 -4 30 0 45 10 21 13 25 23 22 46 -4 25 -1 29 19 29 14 0 42 17 68 41 l44 41 -41 39 c-24 22 -52 39 -65 39 -19 0 -23 5 -23 30 0 35 -38 65 -70 55 -16 -5 -20 -2 -20 18 0 32 -23 51 -53 43 -16 -4 -26 1 -36 16 -10 16 -20 19 -44 15 -28 -4 -34 -1 -47 27 -20 41 -74 76 -119 76 -41 0 -94 -29 -111 -60 -13 -25 -33 -16 -25 11 4 11 2 26 -4 33 -8 10 0 15 39 24 66 15 94 35 132 91 18 25 36 49 41 52 16 11 -2 29 -29 29 -21 0 -24 4 -24 40 0 77 -49 130 -120 130 -39 0 -90 -47 -90 -84 0 -31 18 -44 27 -20 4 10 2 19 -5 22 -18 6 6 48 35 61 34 16 51 14 89 -9 34 -22 59 -75 51 -107 -4 -15 -5 -14 -6 3 -2 32 -44 66 -77 62 -23 -2 -30 -9 -32 -30 -3 -28 -25 -38 -37 -18 -7 11 -25 4 -25 -10 0 -13 37 -22 60 -15 11 3 20 15 20 26 0 25 15 24 34 -3 20 -29 20 -67 0 -96 -29 -42 -3 -44 42 -2 24 22 50 40 59 40 20 0 20 -2 -15 -53 -33 -49 -80 -87 -80 -64 0 7 5 18 10 25 7 9 7 9 -2 2 -15 -13 -31 -13 -23 -1 3 5 0 13 -5 16 -6 4 -15 18 -20 31 -12 32 -40 32 -40 0 0 -30 -52 -76 -85 -76 -13 0 -31 10 -40 23 -8 12 -21 22 -28 22 -15 0 -40 73 -32 94 5 13 7 14 15 1 7 -11 10 -1 10 31 0 46 -14 69 -51 82 -24 8 -59 -20 -59 -48 l0 -25 -352 -2 c-194 -2 -434 -1 -533 2 l-180 5 49 33 c51 33 118 44 132 21 4 -8 9 -7 15 2 7 11 9 10 9 -4 0 -14 -5 -17 -21 -12 -16 5 -20 3 -17 -6 5 -15 61 -14 66 0 2 5 19 0 40 -10 47 -24 115 -24 170 1 39 17 61 37 27 24 -11 -5 -13 1 -8 30 6 40 -9 66 -38 66 -19 0 -35 -17 -24 -28 3 -3 10 0 15 8 7 11 11 11 24 1 23 -19 20 -54 -7 -79 -30 -28 -35 -28 -29 3 3 17 -1 27 -13 31 -18 7 -43 -11 -30 -23 4 -5 10 -2 12 5 3 6 9 10 14 6 17 -10 9 -34 -14 -45 -39 -17 -101 5 -147 54 -38 39 -45 42 -90 41 -45 0 -50 2 -50 21 0 12 -3 24 -6 28 -8 8 -34 -3 -34 -15 0 -6 6 -8 14 -5 9 4 16 -3 19 -19 2 -13 1 -24 -2 -24 -3 0 -12 -9 -18 -20 -11 -16 -8 -16 24 5 19 14 44 25 55 25 25 0 78 -28 78 -41 0 -6 -5 -7 -12 -3 -24 15 -98 14 -127 -1 -19 -9 -32 -11 -36 -5 -4 6 -10 8 -15 5 -4 -3 -6 12 -3 33 13 100 -93 164 -143 86 -14 -21 -15 -29 -4 -52 l12 -27 9 23 c9 24 29 28 60 12 21 -12 25 -49 8 -83 -10 -21 -9 -21 10 2 28 32 27 76 -4 106 -27 28 -37 30 -68 14 -22 -12 -22 -12 -3 10 11 11 27 21 36 21 26 0 67 -36 74 -66 9 -35 -10 -89 -40 -113 -16 -13 -20 -21 -12 -23 10 -4 10 -8 0 -21 -18 -22 -60 -29 -100 -18 l-34 10 16 -24 c21 -32 20 -35 -9 -35 -65 0 -161 83 -123 106 6 4 8 3 5 -2 -3 -6 -2 -16 4 -24 7 -13 9 -12 9 2 0 15 4 16 25 8 14 -5 25 -7 25 -5 0 2 11 1 23 -4 14 -6 29 -5 38 0 12 8 12 9 -1 7 -21 -4 -106 30 -121 49 -10 11 -2 9 26 -6 49 -26 130 -28 165 -4 22 16 23 16 17 0 -9 -23 0 -21 13 3 8 14 8 26 0 40 -13 24 -32 27 -23 4 9 -25 -24 -44 -78 -44 -49 0 -99 16 -99 32 0 4 8 8 18 8 26 0 50 30 50 60 0 14 3 36 7 50 9 35 -27 80 -64 80 -37 0 -53 -17 -38 -40 8 -14 8 -22 -2 -34 -25 -30 -72 -18 -181 44 -134 76 -187 95 -272 94 -52 -1 -68 2 -68 13 0 8 -12 19 -27 26 -16 7 -29 19 -31 27 -7 31 -36 52 -64 46 -20 -4 -28 -1 -33 13 -6 19 -62 52 -87 50 -7 0 -23 -4 -34 -9z m80 -22 c33 -15 41 -40 22 -75 l-15 -28 6 36 c6 41 -2 50 -50 54 -53 4 -70 -11 -64 -53 6 -36 6 -36 -8 -12 -20 34 -18 46 7 70 24 22 64 26 102 8z m-14 -50 c0 -5 5 -6 10 -3 13 8 13 3 0 -30 -7 -17 -7 -24 0 -20 13 8 13 3 -1 -32 -6 -15 -16 -57 -23 -93 l-12 -65 -23 80 c-13 44 -24 99 -26 121 -3 35 0 43 18 51 24 11 57 6 57 -9z m-103 -43 c26 -46 48 -139 37 -156 -4 -8 -14 3 -27 27 -11 21 -25 46 -33 55 -7 8 -15 26 -18 40 -2 13 -9 23 -16 21 -6 -1 -9 2 -6 7 10 16 46 0 61 -28 8 -14 14 -21 15 -15 0 14 -42 77 -55 81 -29 9 -55 -65 -26 -75 9 -3 11 0 6 8 -5 9 -4 11 4 6 6 -4 9 -11 6 -16 -3 -4 2 -13 10 -20 8 -7 15 -17 15 -23 0 -6 -12 0 -27 14 -14 13 -23 18 -19 12 4 -7 2 -13 -4 -13 -7 0 -10 7 -7 14 9 24 -34 32 -50 10 -15 -20 -29 -13 -20 11 4 9 18 15 36 15 24 0 28 3 24 20 -9 35 4 52 39 48 26 -2 37 -11 55 -43z m239 19 c5 -18 1 -29 -12 -39 -17 -12 -15 -13 22 -8 32 4 42 2 47 -11 3 -8 2 -18 -2 -21 -5 -3 -11 2 -15 10 -9 24 -33 17 -76 -21 -43 -39 -57 -33 -15 6 13 12 24 25 23 29 -1 3 2 14 7 24 5 12 2 24 -8 34 -14 14 -18 13 -41 -10 -14 -14 -26 -32 -26 -39 0 -8 5 -6 11 5 6 9 14 15 19 12 5 -3 12 0 16 6 5 8 3 9 -6 4 -8 -5 -11 -4 -6 3 4 6 14 8 22 5 13 -5 13 -7 2 -14 -7 -5 -8 -9 -3 -9 6 0 3 -5 -5 -10 -13 -8 -13 -10 0 -10 9 0 6 -6 -9 -16 -13 -9 -33 -38 -46 -65 -12 -27 -25 -46 -29 -42 -9 10 -7 55 3 49 4 -3 6 6 3 21 -3 18 -1 24 6 19 8 -4 10 -2 6 8 -5 13 16 66 38 94 6 6 23 12 39 12 22 0 30 -6 35 -26z m4 -78 c0 -3 -6 -11 -12 -18 -7 -7 -27 -30 -45 -50 -30 -35 -32 -36 -38 -17 -4 12 -2 26 5 33 10 8 11 5 5 -14 -6 -22 -4 -21 13 6 22 34 72 76 72 60z m-362 -35 c48 -25 86 -66 77 -82 -5 -7 -4 -10 2 -6 14 9 23 -15 23 -58 0 -35 -44 -100 -61 -89 -5 3 -9 -1 -9 -8 0 -9 -3 -9 -10 2 -6 10 -10 11 -10 3 0 -22 -40 -14 -65 12 -28 28 -32 66 -9 89 21 22 61 20 74 -3 14 -28 2 -51 -28 -51 -14 0 -22 -3 -19 -7 4 -3 1 -13 -5 -22 -10 -13 -10 -14 2 -3 8 6 24 12 36 12 50 0 71 78 33 119 -24 25 -78 51 -106 51 -60 0 -141 -46 -164 -94 -6 -11 1 -6 16 12 25 30 55 46 39 20 -4 -7 -3 -8 4 -4 7 4 22 9 34 11 13 3 24 9 26 15 2 6 8 8 13 5 5 -4 -9 -23 -31 -44 -27 -25 -40 -47 -40 -64 0 -39 -17 -42 -39 -7 l-19 32 5 -44 c4 -36 0 -48 -22 -73 -26 -29 -27 -29 -41 -11 -17 24 -18 60 -3 87 9 19 9 19 -10 10 -50 -27 -26 47 28 87 36 26 41 52 9 52 -13 0 -40 -19 -69 -50 -56 -59 -85 -69 -59 -19 18 32 -4 21 -29 -16 -35 -52 -71 -85 -94 -85 -15 0 -18 5 -14 21 4 16 2 19 -11 13 -38 -16 -78 -16 -92 1 -12 14 -12 18 0 25 12 7 11 12 -3 28 -20 22 -22 63 -5 80 17 17 33 15 19 -2 -9 -11 -6 -13 14 -11 19 3 25 -1 25 -15 0 -11 9 -25 20 -33 11 -8 18 -16 15 -19 -2 -2 14 -4 38 -3 31 2 58 13 102 42 100 67 148 92 205 108 67 18 156 13 208 -14z m678 -20 c56 -27 83 -45 78 -52 -4 -8 -3 -9 5 -5 15 9 64 -21 56 -34 -3 -6 0 -7 8 -4 8 3 21 -2 30 -10 17 -17 32 -22 23 -7 -3 4 6 6 19 3 36 -6 75 22 75 56 0 15 4 22 8 16 4 -6 15 -11 25 -11 16 0 16 2 0 19 -20 23 -6 24 19 1 22 -20 24 -66 3 -83 -14 -11 -13 -14 1 -24 14 -10 13 -14 -5 -30 -20 -18 -53 -19 -93 -2 -13 6 -15 3 -11 -13 8 -31 -30 -27 -61 7 -14 15 -41 45 -61 67 -23 25 -30 30 -20 13 29 -47 -2 -41 -53 12 -29 30 -57 50 -70 50 -32 0 -27 -24 12 -57 37 -31 60 -68 51 -83 -4 -7 -13 -6 -26 0 -20 11 -28 -3 -9 -15 15 -9 12 -59 -5 -81 -15 -19 -16 -18 -40 9 -17 19 -25 40 -25 65 l0 37 -18 -23 c-20 -26 -32 -20 -32 14 0 28 -55 94 -79 94 -9 0 -23 5 -31 10 -10 7 -1 9 33 6 28 -3 45 -1 42 5 -3 5 1 6 10 3 14 -6 14 -7 0 -18 -14 -10 -13 -14 12 -36 24 -22 25 -22 9 -2 -20 23 -10 31 14 10 8 -7 6 -2 -5 11 -11 13 -18 26 -15 30 7 8 -58 30 -93 30 -35 1 -103 -33 -117 -58 -24 -46 2 -111 45 -111 13 0 25 -6 28 -12 4 -10 7 -10 18 0 12 11 12 13 -1 10 -9 -2 -14 3 -13 12 2 11 -5 16 -24 15 -31 0 -43 26 -23 50 30 36 90 6 90 -44 0 -70 -111 -92 -157 -32 -7 9 -12 21 -12 26 0 6 4 2 10 -8 6 -9 15 -15 20 -11 5 3 8 0 7 -8 -2 -7 3 -12 10 -10 6 1 12 -3 12 -9 0 -5 5 -7 11 -4 6 4 -2 16 -20 29 -17 13 -28 26 -24 29 3 4 1 7 -5 7 -7 0 -12 10 -13 23 -1 21 -1 21 -9 -3 -7 -23 -8 -22 -9 11 -1 40 28 90 70 121 82 61 196 61 325 -1z m-602 8 c-3 -5 -1 -9 4 -9 5 0 12 -10 15 -21 5 -17 -1 -14 -23 12 -28 34 -31 61 -4 38 7 -6 11 -15 8 -20z m46 -38 c-1 -10 -6 -7 -15 9 -19 33 -18 50 0 26 8 -11 15 -27 15 -35z m-275 -31 c-3 -5 -11 -10 -16 -10 -6 0 -7 5 -4 10 3 6 11 10 16 10 6 0 7 -4 4 -10z m555 -14 c0 -2 -7 -7 -16 -10 -8 -3 -12 -2 -9 4 6 10 25 14 25 6z m-165 -46 c10 -11 16 -22 13 -25 -3 -3 -11 1 -18 10 -7 8 -25 15 -40 15 -15 0 -33 -7 -40 -15 -7 -9 -15 -13 -18 -10 -11 11 33 45 58 45 15 0 35 -9 45 -20z m-1134 -47 c6 -16 15 -36 21 -46 15 -30 4 -29 -30 3 -34 30 -43 70 -17 70 9 0 20 -12 26 -27z m1798 -67 c25 -24 29 -71 5 -62 -9 3 -14 3 -12 -1 2 -5 10 -20 17 -35 8 -15 11 -34 7 -44 -6 -16 -8 -16 -26 1 -20 18 -20 18 -14 -14 6 -27 2 -36 -32 -67 -35 -34 -39 -35 -51 -18 -16 22 -17 86 -1 102 6 6 9 15 5 19 -4 4 -13 1 -19 -5 -16 -16 -38 -15 -38 2 0 7 7 27 15 42 19 36 19 61 1 112 -8 23 -11 44 -6 47 12 7 23 -12 14 -27 -4 -6 -3 -8 3 -5 17 10 53 -41 68 -96 9 -34 14 -43 14 -26 1 15 -6 43 -14 62 -8 20 -12 44 -9 54 5 15 4 16 -5 3 -9 -13 -11 -13 -12 0 -1 8 -1 21 0 29 2 8 -2 10 -10 5 -8 -5 -10 -3 -5 5 6 9 19 1 46 -26 21 -21 47 -47 59 -57z m-1866 50 c18 -7 41 -24 52 -36 l20 -23 -27 17 c-26 17 -106 41 -94 29 3 -4 -4 -11 -17 -18 -12 -6 -21 -18 -19 -25 2 -11 0 -11 -11 -1 -12 9 -16 9 -20 -1 -4 -9 -6 -7 -6 4 -1 19 53 68 75 68 8 0 29 -6 47 -14z m531 -17 c-16 -32 -19 -53 -3 -26 6 9 15 14 21 11 8 -5 9 -1 5 10 -4 9 -3 15 2 11 5 -3 17 2 25 11 19 18 19 16 5 -42 -10 -38 -9 -51 6 -85 14 -30 15 -43 7 -51 -9 -9 -16 -7 -31 6 -17 15 -19 15 -25 1 -3 -9 -2 -13 4 -10 11 7 25 -59 16 -81 -3 -8 -11 -12 -17 -8 -8 4 -9 -1 -4 -16 l7 -23 -32 23 c-36 26 -54 63 -44 94 6 20 6 20 -13 4 -11 -10 -23 -18 -26 -18 -13 0 -7 46 8 66 19 25 19 35 0 28 -24 -10 -18 41 8 65 69 64 106 78 81 30z m714 6 c10 -9 -9 -12 -89 -13 -87 -1 -99 0 -89 13 21 25 151 26 178 0z m-2458 -15 c26 -26 21 -64 -10 -68 -18 -3 -20 -6 -9 -13 11 -8 10 -9 -6 -7 -12 2 -20 11 -20 22 0 53 -75 41 -101 -17 l-15 -32 6 40 c9 57 48 95 97 95 25 0 45 -7 58 -20z m2390 -25 c15 -18 5 -35 -20 -35 -22 0 -34 15 -26 35 7 19 30 19 46 0z m1257 -7 c-3 -8 -6 -5 -6 6 -1 11 2 17 5 13 3 -3 4 -12 1 -19z m-3419 0 c7 -7 12 -20 12 -30 0 -24 -37 -24 -43 0 -4 13 -5 12 -6 -4 0 -12 6 -25 15 -28 9 -3 267 -6 574 -6 307 0 565 -3 574 -6 9 -3 13 -10 10 -15 -7 -13 -1136 -12 -1168 1 -15 5 -31 21 -38 35 -9 21 -8 28 7 45 20 23 45 26 63 8z m1889 4 c7 -5 -11 -19 -51 -40 -142 -73 -262 -204 -315 -342 -133 -343 -1 -696 322 -865 55 -29 71 -45 44 -45 -28 0 -134 61 -199 114 -113 93 -203 242 -233 382 -66 311 85 637 362 779 54 28 54 27 70 17z m203 -11 c0 -24 -25 -34 -40 -16 -15 18 -5 35 21 35 12 0 19 -7 19 -19z m148 -4 c2 -9 -4 -20 -13 -23 -20 -8 -50 19 -40 36 10 17 49 8 53 -13z m267 -25 c33 -19 94 -70 135 -111 329 -332 242 -890 -172 -1111 -37 -20 -65 -29 -78 -25 -16 5 -6 13 49 42 148 75 266 203 321 345 44 112 53 167 48 287 -7 180 -71 325 -198 451 -36 36 -94 81 -128 100 -35 19 -69 40 -76 47 -8 7 -17 9 -21 5 -5 -4 -5 -1 -1 6 11 19 49 8 121 -36z m1839 32 c22 -21 20 -47 -5 -70 -20 -18 -47 -19 -605 -22 -544 -3 -611 0 -575 22 4 3 177 7 382 8 206 1 465 4 577 6 201 3 202 3 201 25 -1 17 -2 18 -6 5 -6 -22 -32 -24 -39 -3 -14 37 40 59 70 29z m-2324 -29 c-14 -17 -44 -12 -48 8 -4 18 27 28 46 14 9 -7 9 -13 2 -22z m280 20 c13 -16 6 -35 -14 -35 -22 0 -37 25 -24 38 16 16 23 15 38 -3z m-2640 -35 c-7 -13 -9 -39 -6 -64 4 -22 7 -56 8 -74 1 -23 6 -31 15 -27 8 2 11 0 8 -5 -8 -13 -35 -13 -35 -1 0 5 -8 12 -17 16 -20 6 -74 80 -66 89 9 8 46 -14 70 -43 12 -14 22 -21 23 -15 0 5 -5 15 -11 21 -14 14 -14 85 1 112 6 13 14 20 17 18 2 -3 -1 -15 -7 -27z m2293 16 c7 -19 -18 -40 -38 -32 -15 6 -20 28 -8 39 12 12 41 7 46 -7z m425 -9 c2 -9 -4 -20 -12 -23 -21 -8 -46 13 -39 32 8 20 47 13 51 -9z m2272 -53 c0 -22 -9 -42 -26 -61 l-26 -28 16 27 c18 31 21 89 5 121 -10 21 -9 21 10 -2 12 -13 21 -37 21 -57z m-2760 20 c0 -8 -5 -14 -11 -14 -5 0 -7 5 -3 12 4 7 3 8 -5 4 -6 -4 -9 -12 -6 -17 10 -14 -11 -11 -24 5 -9 11 -8 18 5 30 12 13 19 14 30 5 8 -6 14 -18 14 -25z m399 6 c143 -40 253 -118 334 -237 187 -273 117 -638 -158 -822 -314 -210 -730 -77 -874 279 -73 180 -42 398 79 562 142 193 392 281 619 218z m157 9 c9 -16 -20 -41 -39 -33 -17 6 -22 25 -10 37 10 11 41 8 49 -4z m-621 -44 c0 -23 -34 -33 -46 -14 -10 17 9 41 30 37 9 -2 16 -12 16 -23z m675 10 c15 -18 5 -35 -20 -35 -22 0 -34 15 -26 35 7 19 30 19 46 0z m1830 -17 c0 -7 10 -33 21 -58 15 -34 22 -41 29 -30 7 11 9 9 7 -8 -1 -13 -7 -21 -15 -20 -14 3 -45 54 -57 91 -5 18 -25 19 -455 14 -248 -2 -453 0 -456 4 -3 5 201 10 453 12 252 1 461 3 466 5 4 1 7 -4 7 -10z m-4015 -9 c-33 -5 -124 -6 -202 -3 l-142 5 -19 -43 c-10 -24 -26 -49 -35 -57 -12 -10 -9 3 10 47 l28 61 210 -1 c159 0 195 -3 150 -9z m560 1 c7 -12 -334 -12 -410 0 -33 5 28 8 177 9 142 0 229 -3 233 -9z m335 0 c0 -6 -60 -10 -160 -10 -100 0 -160 4 -160 10 0 6 60 10 160 10 100 0 160 -4 160 -10z m150 0 c0 -5 -5 -10 -11 -10 -5 0 -7 5 -4 10 3 6 8 10 11 10 2 0 4 -4 4 -10z m19 -31 c-12 -23 -31 -35 -23 -15 6 17 -8 16 -48 -4 -38 -18 -35 -27 7 -22 41 5 134 -43 117 -60 -7 -7 -28 -2 -65 16 -76 35 -138 36 -211 3 -32 -15 -62 -25 -66 -22 -4 2 -15 -4 -25 -15 -10 -11 -14 -20 -10 -20 4 0 0 -9 -10 -20 -10 -11 -21 -18 -25 -15 -4 2 -15 -13 -25 -35 -10 -22 -20 -38 -22 -36 -3 2 7 26 21 53 14 26 25 42 26 34 0 -19 13 -5 15 17 1 9 5 32 9 50 5 23 4 32 -5 32 -7 0 -10 2 -7 5 11 12 37 -7 31 -23 -3 -9 12 0 33 21 47 44 53 45 46 11 -4 -24 -3 -25 16 -15 12 6 24 16 27 21 4 6 15 8 25 5 11 -3 33 5 56 20 26 18 48 25 73 23 31 -3 36 0 33 17 -2 16 -1 17 7 6 6 -10 6 -21 0 -32z m2011 31 c0 -6 -58 -10 -155 -10 -97 0 -155 4 -155 10 0 6 58 10 155 10 97 0 155 -4 155 -10z m-1625 -25 c0 -13 -8 -21 -22 -23 -17 -3 -23 2 -23 16 0 10 3 22 7 26 13 13 38 1 38 -19z m795 9 c11 -12 11 -18 -1 -30 -13 -12 -18 -12 -34 -1 -11 9 -16 20 -12 31 8 20 31 21 47 0z m-2080 -5 c93 -14 215 -76 286 -145 33 -31 58 -61 56 -66 -1 -5 5 -11 13 -14 9 -4 20 -15 26 -25 16 -31 -16 -12 -46 28 -15 19 -29 32 -32 29 -3 -3 -20 5 -37 18 -49 36 -156 76 -156 58 0 -5 18 -14 41 -21 23 -7 39 -14 36 -17 -2 -2 -16 0 -31 6 -15 5 -46 9 -69 9 -40 -2 -39 -2 13 -9 64 -9 142 -38 134 -51 -3 -5 1 -6 8 -4 8 3 22 -2 33 -11 11 -8 15 -13 9 -10 -6 3 -11 -1 -11 -9 0 -11 5 -12 21 -3 12 6 18 7 14 3 -4 -4 5 -18 20 -32 15 -14 19 -20 10 -13 -9 6 -23 8 -29 4 -8 -4 -9 -3 -5 4 4 7 2 13 -3 13 -17 2 -24 4 -64 18 -37 13 -69 11 -111 -5 -16 -6 -18 -4 -14 14 8 28 3 28 -34 -3 -50 -43 -95 -27 -63 21 9 14 14 28 12 31 -5 5 -21 -11 -49 -49 -15 -20 -95 -41 -104 -27 -9 14 6 66 22 80 11 9 12 15 2 26 -10 12 -7 18 12 33 27 21 93 40 137 40 l28 1 -24 19 c-55 46 -200 11 -270 -65 -23 -25 -41 -50 -41 -57 1 -7 8 0 16 15 8 15 19 25 25 22 5 -4 12 2 16 12 8 21 33 48 33 36 0 -4 4 -3 8 3 4 6 21 16 39 22 30 10 29 8 -18 -37 -41 -40 -49 -53 -49 -84 0 -41 -14 -55 -37 -35 -15 11 -16 11 -10 -6 10 -25 -11 -86 -28 -86 -18 0 -55 48 -55 72 0 11 4 28 10 38 8 15 6 17 -10 13 -44 -12 -9 54 44 84 23 13 15 43 -11 43 -34 0 -78 -40 -108 -97 -17 -34 -38 -59 -49 -61 -16 -4 -18 0 -11 35 l7 38 -34 -37 c-18 -20 -42 -38 -53 -40 -25 -4 -31 24 -9 46 27 27 10 28 -26 1 -36 -26 -72 -31 -114 -15 -30 11 -34 35 -9 48 14 8 13 11 -8 17 -36 11 -69 45 -69 72 0 13 4 23 10 23 5 0 7 6 4 14 -3 8 -1 17 4 20 5 3 12 -5 14 -19 3 -14 1 -22 -5 -18 -5 3 -8 0 -5 -8 2 -8 22 -24 44 -36 47 -27 131 -30 213 -8 30 8 57 13 60 12 3 0 27 8 53 20 25 12 57 24 70 27 20 6 19 5 -4 -9 -40 -22 -35 -28 8 -10 20 8 38 15 41 15 2 0 2 4 -1 9 -4 5 3 7 14 4 11 -3 20 -1 20 5 0 23 138 35 230 21z m2550 -34 c9 -8 20 -15 23 -15 12 0 7 28 -5 32 -8 3 -6 7 5 11 9 3 16 3 16 -1 -4 -22 4 -33 30 -47 29 -15 30 -14 33 12 l3 28 38 -38 c20 -21 37 -33 37 -27 0 5 4 10 8 10 8 0 32 -65 32 -84 0 -16 -17 -3 -34 25 -13 21 -21 28 -29 20 -7 -7 -22 -4 -50 11 -54 27 -117 49 -117 40 0 -7 -29 -13 -77 -16 -11 0 -19 -5 -15 -10 3 -5 -2 -6 -12 -3 -10 4 -15 3 -11 -3 7 -12 -33 -33 -51 -26 -26 10 -15 23 43 49 41 18 62 23 74 16 22 -11 29 -11 29 0 0 6 -12 16 -27 23 -14 7 -28 19 -31 26 -5 16 62 -10 88 -33z m968 28 c4 -6 15 -9 26 -7 17 2 86 -15 150 -39 16 -6 43 -22 60 -36 30 -24 30 -24 11 -2 l-20 24 25 -13 c14 -7 26 -12 28 -11 1 1 26 -3 55 -8 28 -6 68 -9 87 -7 19 2 43 4 52 5 10 0 27 11 39 24 12 12 18 15 14 7 -8 -13 -7 -13 8 -1 17 14 24 37 8 27 -4 -3 -6 6 -3 19 2 14 9 22 14 19 5 -3 7 -12 4 -20 -3 -8 -1 -14 4 -14 6 0 10 -10 10 -22 0 -27 -37 -68 -62 -68 -22 0 -23 -8 -3 -30 13 -15 14 -19 1 -29 -36 -30 -100 -23 -154 15 l-23 17 18 -31 c25 -44 7 -61 -36 -36 -17 10 -31 21 -31 24 0 4 -7 15 -15 26 -13 17 -14 16 -8 -18 4 -30 2 -38 -9 -38 -20 0 -44 29 -52 61 -13 57 -100 119 -128 91 -7 -7 2 -22 31 -50 44 -42 55 -78 21 -69 -16 4 -18 2 -10 -13 21 -39 10 -76 -32 -108 -15 -12 -19 -9 -33 19 -9 17 -15 42 -12 55 3 19 2 22 -9 13 -20 -16 -31 -4 -37 42 -6 43 -32 80 -82 110 -28 17 -28 19 -7 19 12 0 22 -4 22 -10 0 -5 8 -7 18 -4 13 4 14 3 4 -4 -11 -7 -11 -10 3 -15 9 -4 13 -3 10 3 -9 14 2 12 33 -6 27 -16 27 -16 -2 9 -52 45 -188 63 -234 31 -29 -20 -18 -37 19 -29 40 9 78 -1 114 -31 23 -18 27 -26 17 -33 -11 -6 -9 -15 7 -42 27 -43 28 -82 4 -75 -10 2 -29 7 -43 11 -14 4 -39 22 -57 41 -37 40 -64 46 -34 8 40 -51 -4 -74 -57 -29 -37 31 -42 31 -34 3 4 -18 2 -20 -14 -14 -62 26 -107 18 -171 -31 -27 -19 -42 -30 -36 -22 8 8 9 17 3 24 -7 8 -3 18 11 31 12 10 24 18 28 17 3 0 5 4 3 10 -2 7 0 9 3 5 10 -10 47 11 40 22 -3 6 1 7 9 4 8 -3 23 0 33 6 16 10 16 11 -4 7 -34 -7 -28 2 12 19 42 17 48 18 39 2 -4 -7 1 -6 12 3 10 8 31 14 47 13 15 -2 27 1 27 6 0 19 -108 3 -155 -24 -26 -14 -51 -24 -55 -21 -9 6 -77 -74 -118 -140 -43 -68 -40 -49 4 36 69 130 216 240 367 274 68 16 215 14 225 -2z m-3921 -10 c0 -9 -4 -10 -14 -2 -7 6 -13 12 -13 14 0 1 6 2 13 2 8 0 14 -6 14 -14z m48 7 c4 -6 -1 -7 -11 -3 -13 5 -15 3 -9 -7 5 -9 4 -11 -4 -6 -6 4 -9 12 -6 17 8 12 22 12 30 -1z m490 0 c3 -6 -1 -7 -9 -4 -18 7 -21 14 -7 14 6 0 13 -4 16 -10z m48 -3 c7 5 24 8 39 9 22 0 25 -2 16 -13 -6 -7 -13 -11 -16 -9 -2 3 -13 1 -23 -4 -12 -7 -20 -7 -24 0 -4 6 -11 8 -16 5 -5 -4 -6 2 -2 11 4 11 8 13 11 6 2 -7 9 -9 15 -5z m173 -13 c2 -12 -1 -13 -12 -3 -7 6 -11 16 -8 21 7 11 17 3 20 -18z m106 -67 c9 -29 8 -43 -2 -65 l-13 -27 -12 45 c-10 41 -12 42 -17 18 -2 -14 -1 -32 3 -40 12 -21 -26 -20 -45 1 -18 20 -67 113 -62 118 5 6 56 -38 56 -48 0 -19 30 -82 37 -76 3 4 0 13 -6 21 -15 17 -18 89 -6 126 l8 24 23 -29 c14 -17 29 -47 36 -68z m136 84 c2 0 0 -6 -3 -11 -5 -8 -12 -7 -22 1 -12 10 -16 10 -23 -1 -5 -8 -6 -19 -3 -25 4 -5 2 -7 -2 -2 -5 4 -9 16 -10 26 -1 14 5 18 29 16 17 -2 32 -3 34 -4z m1862 -21 c0 -11 -34 -8 -37 3 -8 21 -2 27 17 17 11 -6 20 -15 20 -20z m264 18 c-2 -3 -13 -6 -24 -5 -24 2 -18 13 9 13 11 0 18 -4 15 -8z m63 -5 c0 -9 -4 -10 -14 -2 -7 6 -13 12 -13 14 0 1 6 2 13 2 8 0 14 -6 14 -14z m50 0 c1 -10 3 -25 4 -33 5 -34 -1 -84 -10 -74 -13 13 -18 113 -6 118 6 3 10 5 10 5 1 1 1 -7 2 -16z m47 5 c-3 -4 -11 -5 -19 -1 -21 7 -19 12 4 10 11 0 18 -5 15 -9z m44 -71 c-3 -29 -8 -61 -11 -72 -4 -11 6 8 22 43 17 34 32 62 35 62 2 0 13 3 23 7 17 7 17 6 2 -17 -9 -14 -19 -37 -23 -52 -9 -38 -89 -89 -85 -55 1 7 0 23 -1 37 -2 24 -2 24 -10 -4 -5 -16 -7 -33 -4 -38 3 -4 0 -8 -5 -8 -6 0 -11 5 -11 11 0 5 -4 8 -8 5 -20 -12 9 98 34 131 23 31 28 33 36 19 6 -10 8 -41 6 -69z m120 74 c2 0 0 -6 -3 -11 -5 -8 -11 -7 -21 1 -10 8 -18 8 -27 1 -13 -11 -42 -11 -53 1 -4 3 6 4 21 1 14 -2 24 -1 21 4 -4 7 45 9 62 3z m95 -5 c-4 -5 2 -7 13 -3 19 7 19 7 0 -8 -15 -11 -23 -12 -33 -3 -7 6 -17 8 -20 4 -4 -4 -2 -11 6 -15 10 -6 9 -10 -4 -14 -9 -4 -13 -3 -10 3 11 18 -8 11 -34 -12 -21 -18 -23 -19 -10 -3 9 11 16 29 15 40 -2 17 4 20 40 20 24 0 40 -4 37 -9z m67 10 c0 -2 -7 -7 -16 -10 -8 -3 -12 -2 -9 4 6 10 25 14 25 6z m534 -8 c-6 -10 10 -11 20 -1 3 4 13 8 21 9 12 2 11 -2 -3 -21 -9 -13 -19 -19 -20 -14 -2 5 -8 7 -13 3 -5 -3 -9 -1 -9 5 0 5 -9 8 -21 6 -16 -3 -18 -1 -10 9 12 14 43 18 35 4z m-4205 -11 c8 -10 7 -14 -2 -14 -8 0 -14 6 -14 14 0 7 1 13 2 13 2 0 8 -6 14 -13z m746 -5 c-3 -3 -11 0 -18 7 -9 10 -8 11 6 5 10 -3 15 -9 12 -12z m215 -52 c-4 -36 -8 -55 -8 -43 -1 12 -6 25 -12 28 -15 9 -12 37 6 63 9 13 17 22 18 20 1 -2 -1 -32 -4 -68z m2250 67 c0 -2 -10 -12 -22 -23 l-23 -19 19 23 c18 21 26 27 26 19z m-2509 -31 c-15 -18 -3 -26 32 -22 15 2 30 -1 34 -7 3 -6 1 -7 -5 -3 -6 3 -16 0 -24 -7 -11 -11 -18 -9 -43 16 -17 16 -25 27 -18 23 6 -3 14 -2 18 4 3 5 9 10 12 10 3 0 0 -6 -6 -14z m340 -3 c13 -16 12 -17 -3 -4 -10 7 -18 15 -18 17 0 8 8 3 21 -13z m654 -8 c0 -23 -34 -33 -46 -14 -10 17 9 41 30 37 9 -2 16 -12 16 -23z m895 10 c15 -18 5 -35 -20 -35 -22 0 -34 15 -26 35 7 19 30 19 46 0z m-2633 -8 c0 -8 -6 -14 -14 -14 -9 0 -10 4 -2 14 6 7 12 13 14 13 1 0 2 -6 2 -13z m3295 -1 c-4 -6 -7 -14 -8 -18 -1 -5 -2 -11 -3 -14 0 -3 -6 -2 -11 1 -8 5 -8 11 -1 19 6 7 9 15 6 18 -3 2 2 5 10 5 8 0 11 -5 7 -11z m-1912 -59 c55 -27 90 -83 89 -142 -1 -51 -13 -91 -26 -88 -6 1 -10 -5 -9 -14 2 -28 -64 -65 -103 -59 -39 6 -78 39 -83 70 -6 37 12 76 40 83 51 12 83 -41 42 -70 -21 -15 -21 -15 -2 -21 25 -8 62 6 87 34 44 49 9 181 -48 179 l-22 0 23 -16 c12 -8 22 -26 22 -39 0 -25 -21 -45 -28 -26 -2 7 -8 10 -13 6 -5 -3 -9 4 -9 16 0 11 -12 33 -26 47 -22 22 -32 25 -71 20 -46 -5 -122 -49 -131 -75 -3 -11 0 -12 16 -3 25 13 89 15 96 2 11 -18 -7 -42 -35 -48 -32 -6 -53 -26 -23 -21 11 2 19 -3 19 -11 0 -14 -4 -16 -57 -41 -42 -20 -72 -91 -72 -172 -1 -46 -4 -60 -9 -45 -5 12 -7 43 -5 70 3 40 1 45 -10 30 -10 -14 -11 -8 -7 36 3 28 10 62 15 74 11 21 11 21 -4 3 -12 -15 -16 -16 -17 -5 -1 8 -7 -6 -14 -31 l-13 -45 -1 40 c-2 75 67 191 142 241 87 58 160 64 247 21z m308 7 c3 -22 -21 -39 -39 -28 -11 6 -12 38 -2 48 13 13 38 1 41 -20z m987 10 c14 -14 14 -19 2 -31 -17 -17 -47 -7 -47 16 0 34 20 40 45 15z m469 -11 c17 -8 50 -31 72 -49 23 -18 44 -31 47 -28 3 3 5 -1 4 -8 -1 -7 12 -40 27 -73 34 -73 43 -119 26 -130 -9 -5 -11 -4 -6 3 4 7 4 18 -1 25 -4 6 -8 17 -9 22 0 6 -2 19 -3 30 -2 12 -5 15 -8 7 -2 -6 -9 -9 -15 -6 -5 3 -3 -8 6 -24 18 -34 21 -68 7 -76 -4 -3 -6 7 -4 22 3 22 2 24 -5 7 -5 -11 -7 -47 -5 -80 3 -33 1 -71 -5 -85 -7 -20 -9 -10 -10 45 -1 106 -29 161 -100 191 -34 14 -40 40 -9 38 9 -1 14 2 11 7 -3 5 -13 9 -23 9 -22 0 -55 35 -46 49 9 15 88 14 104 -1 11 -11 13 -10 9 2 -8 28 -98 80 -138 80 -47 0 -90 -32 -90 -66 0 -21 -4 -25 -22 -22 -31 4 -38 47 -9 55 24 6 28 23 6 23 -9 0 -27 -12 -40 -26 -47 -51 -44 -126 7 -169 30 -26 45 -29 73 -19 14 6 13 8 -5 21 -26 18 -26 48 1 67 60 42 111 -64 57 -121 -21 -22 -45 -32 -33 -14 3 5 1 13 -5 16 -6 4 -10 3 -9 -2 5 -27 -3 -33 -33 -28 -38 7 -50 14 -43 25 3 4 -3 7 -13 6 -25 -2 -62 78 -62 134 0 74 50 132 140 161 34 11 116 1 154 -18z m-2315 -10 c4 -3 -28 2 -47 6 -2 1 0 6 3 11 5 8 12 7 23 -2 10 -7 19 -14 21 -15z m2462 -16 c-10 -9 -11 -8 -5 6 3 10 9 15 12 12 3 -3 0 -11 -7 -18z m-2181 9 c0 -2 -8 -10 -17 -17 -16 -13 -17 -12 -4 4 13 16 21 21 21 13z m2110 -6 c0 -5 -2 -10 -4 -10 -3 0 -8 5 -11 10 -3 6 -1 10 4 10 6 0 11 -4 11 -10z m960 -20 c12 -23 12 -24 -3 -11 -10 7 -17 20 -17 29 0 18 3 16 20 -18z m-2540 -5 c11 -13 11 -18 0 -28 -10 -10 -11 -9 -6 3 5 10 3 9 -7 -2 -19 -23 -41 -4 -26 24 12 22 23 23 39 3z m1078 -13 c3 -16 -2 -22 -17 -22 -24 0 -35 15 -27 36 9 23 40 13 44 -14z m609 -89 c-6 -5 -47 84 -46 99 0 7 12 -11 25 -41 14 -29 23 -55 21 -58z m1398 93 c102 -43 99 -206 -5 -258 -57 -29 -213 -17 -193 15 4 6 1 7 -6 3 -13 -9 -91 38 -91 54 0 6 -3 9 -7 8 -5 -2 -9 1 -10 6 -1 5 -14 17 -30 27 -15 10 -24 19 -20 19 5 0 1 7 -8 16 -9 9 -13 19 -10 22 3 3 24 -12 48 -35 45 -43 115 -93 131 -93 6 0 -10 13 -35 29 -41 27 -110 91 -97 91 3 0 25 -16 49 -36 89 -74 178 -97 234 -60 33 22 44 14 16 -11 -23 -19 -27 -33 -10 -33 5 0 7 5 3 12 -5 7 -2 9 8 5 20 -7 54 28 63 66 16 62 -45 122 -103 101 -14 -5 -27 -15 -30 -22 -3 -11 -1 -11 17 0 18 11 24 10 42 -8 26 -27 18 -61 -18 -75 -28 -10 -68 5 -57 23 4 7 3 8 -4 4 -13 -8 -32 24 -32 53 0 26 45 79 73 84 40 8 47 7 82 -7z m-5031 -7 c14 -7 32 -27 41 -45 14 -29 14 -37 1 -68 -22 -52 -82 -61 -107 -15 -21 41 23 87 56 59 10 -8 15 -9 15 -2 0 16 -34 32 -65 32 -14 0 -37 -11 -50 -25 -66 -65 10 -188 112 -184 23 1 21 3 -13 11 -29 7 -45 18 -53 35 -6 13 -11 25 -11 27 0 2 18 -5 40 -16 37 -19 42 -19 93 -4 30 9 83 37 118 62 l64 46 -45 -46 c-25 -26 -72 -60 -104 -76 -33 -17 -54 -30 -47 -30 29 0 121 58 177 111 55 53 94 80 65 45 -6 -8 -10 -18 -9 -22 2 -5 -1 -10 -5 -11 -5 -1 -39 -31 -77 -67 -80 -75 -143 -101 -220 -90 -92 13 -139 60 -147 145 -9 102 81 169 171 128z m1592 -8 c0 -20 -11 -22 -36 -6 -12 7 -10 10 10 16 14 4 25 7 25 8 1 1 1 -7 1 -18z m1717 -6 c-3 -9 -8 -14 -10 -11 -3 3 -2 9 2 15 9 16 15 13 8 -4z m57 -3 c0 -5 -7 -9 -15 -9 -8 0 -12 4 -9 9 3 4 9 8 15 8 5 0 9 -4 9 -8z m-2935 -39 c-5 -28 -4 -34 4 -23 8 12 11 6 12 -25 1 -34 2 -36 8 -15 7 24 7 24 14 -8 15 -74 104 -119 144 -73 19 23 33 19 33 -9 0 -26 -34 -43 -75 -38 -19 2 -31 0 -29 -4 3 -4 23 -8 44 -8 30 0 43 6 59 26 21 27 20 35 -7 66 -13 16 -12 18 11 29 32 14 64 -2 73 -37 8 -31 -10 -74 -31 -74 -8 0 -15 -5 -15 -11 0 -22 36 -2 52 29 23 48 28 50 28 13 0 -24 -9 -42 -34 -67 -31 -31 -39 -34 -92 -34 -62 0 -131 26 -127 48 2 7 -3 11 -10 10 -6 -2 -11 3 -9 10 1 8 -2 11 -7 8 -13 -8 -34 21 -25 35 5 8 3 9 -6 4 -10 -6 -12 -4 -7 9 4 9 3 15 -2 12 -18 -11 -28 91 -15 142 10 35 15 26 9 -15z m829 21 c17 -7 10 -34 -9 -34 -17 0 -28 17 -20 30 7 12 8 12 29 4z m656 -34 c-6 -11 -15 -20 -21 -20 -13 0 -22 27 -15 45 4 13 10 14 26 5 16 -9 18 -15 10 -30z m1790 31 c0 -14 -28 -33 -40 -26 -20 12 -10 35 15 35 14 0 25 -4 25 -9z m-647 -15 c3 -8 -1 -20 -10 -27 -13 -11 -17 -10 -29 5 -7 11 -11 23 -8 27 8 14 41 10 47 -5z m165 -11 c-3 -3 -9 2 -12 12 -6 14 -5 15 5 6 7 -7 10 -15 7 -18z m-3093 7 c-15 -13 -65 -32 -65 -25 0 11 35 32 55 33 11 0 15 -3 10 -8z m4376 -109 c-6 -21 -18 -47 -27 -58 -8 -11 -13 -14 -9 -7 10 19 0 14 -21 -10 -15 -19 -16 -20 -1 -9 10 8 17 9 17 3 0 -11 -39 -42 -53 -42 -4 0 -5 5 -1 12 4 7 3 8 -5 4 -6 -4 -9 -11 -6 -16 9 -14 -13 -21 -82 -27 -47 -4 -64 -2 -59 6 5 7 1 9 -9 5 -30 -12 -91 69 -78 103 8 19 23 16 23 -6 0 -10 9 -30 21 -45 16 -20 24 -24 34 -16 9 8 15 8 20 0 3 -5 12 -10 18 -10 14 1 -22 23 -41 26 -42 7 -57 71 -25 106 18 21 36 23 65 7 20 -11 20 -11 -2 -34 -13 -14 -19 -29 -14 -36 5 -9 10 -5 16 11 l9 23 20 -21 c53 -58 134 -4 153 101 4 21 11 35 15 32 5 -3 5 -20 1 -39 -6 -27 -5 -33 6 -29 7 3 13 8 12 11 0 4 1 23 3 42 2 34 3 34 6 -7 2 -23 -1 -59 -6 -80z m345 102 c26 -19 -1 -20 -36 0 -23 13 -23 14 -4 15 11 0 29 -7 40 -15z m-569 -20 c0 -8 -4 -12 -9 -9 -5 3 -6 10 -3 15 9 13 12 11 12 -6z m-4477 -46 c0 -16 9 -49 20 -72 l21 -42 -21 25 c-41 49 -45 55 -48 79 -3 16 0 21 8 16 8 -5 11 -3 8 5 -7 21 -27 24 -34 6 -11 -30 8 -71 53 -114 36 -35 39 -41 16 -29 -34 18 -55 41 -77 84 -21 41 -20 70 1 82 27 15 53 -5 53 -40z m1457 -11 c-2 -13 -4 -3 -4 22 0 25 2 35 4 23 2 -13 2 -33 0 -45z m463 51 c0 -5 -5 -7 -10 -4 -7 4 -9 -3 -6 -18 3 -17 -2 -31 -15 -43 -27 -24 -29 -16 -7 34 17 39 38 56 38 31z m1503 -9 c-3 -11 -7 -20 -8 -20 -1 0 -5 9 -8 20 -3 12 0 20 8 20 8 0 11 -8 8 -20z m444 -47 c-2 -16 -4 -5 -4 22 0 28 2 40 4 28 2 -13 2 -35 0 -50z m286 52 c-3 -9 -1 -15 5 -13 10 3 12 -1 12 -24 0 -7 -5 -5 -11 5 -6 9 -14 15 -19 12 -5 -3 -12 0 -16 6 -4 7 -3 9 3 6 6 -4 13 0 17 8 3 8 8 15 10 15 3 0 3 -7 -1 -15z m598 5 c0 10 2 11 6 3 2 -7 11 -13 19 -13 17 0 61 -86 50 -97 -4 -4 -15 -2 -25 4 -17 11 -18 8 -14 -30 5 -58 -7 -76 -41 -54 -33 22 -42 71 -21 120 9 21 13 48 10 60 -5 17 -4 19 4 7 10 -13 11 -13 12 0z m629 -5 c8 -9 10 -26 6 -42 -4 -16 -8 -36 -9 -45 -1 -9 -4 -15 -8 -12 -4 2 -14 -6 -22 -19 -8 -12 -30 -30 -48 -40 l-34 -19 32 26 c58 48 91 124 62 142 -6 3 -16 1 -22 -6 -9 -10 -9 -14 1 -17 21 -8 13 -41 -19 -78 -18 -20 -33 -34 -36 -32 -2 3 7 26 21 51 14 26 22 54 19 62 -6 16 14 44 32 44 7 0 18 -7 25 -15z m-977 -10 c39 -8 24 -25 -22 -25 -81 0 -105 -99 -38 -152 12 -10 16 -18 10 -18 -41 0 -83 96 -67 152 10 34 43 58 72 52 10 -1 30 -5 45 -9z m-3848 -12 c-16 -13 -17 -15 -2 -10 20 7 22 -4 5 -22 -11 -10 -10 -11 5 -6 9 4 18 17 18 29 2 29 18 -51 18 -91 1 -43 -33 -80 -56 -62 -11 10 -14 25 -10 56 4 37 2 42 -10 32 -10 -9 -17 -9 -24 -2 -16 16 29 89 55 90 21 2 21 2 1 -14z m471 -10 c7 -10 14 -31 14 -47 0 -36 -35 -112 -56 -120 -9 -4 -7 5 8 24 47 65 17 143 -54 138 -42 -2 -60 8 -38 23 23 15 110 3 126 -18z m114 22 c0 -2 -6 -8 -13 -14 -10 -8 -14 -7 -14 2 0 8 6 14 14 14 7 0 13 -1 13 -2z m945 -20 c0 -13 -8 -21 -22 -23 -17 -3 -23 2 -23 16 0 10 3 22 7 26 13 13 38 1 38 -19z m1195 0 c0 -18 -5 -25 -19 -25 -11 0 -23 5 -26 10 -11 18 3 40 25 40 15 0 20 -7 20 -25z m159 -3 c-6 -3 -5 -10 3 -20 12 -14 10 -14 -12 -2 -15 8 -20 15 -12 18 6 2 12 11 12 20 0 15 2 15 10 2 6 -10 6 -16 -1 -18z m778 22 c-3 -4 3 -14 15 -23 20 -17 20 -17 -4 -17 -19 0 -24 5 -22 21 3 26 3 25 11 25 3 0 4 -3 0 -6z m-3117 -10 c0 -8 -19 -13 -24 -6 -3 5 1 9 9 9 8 0 15 -2 15 -3z m3900 0 c0 -8 -19 -13 -24 -6 -3 5 1 9 9 9 8 0 15 -2 15 -3z m-5082 -22 c2 -8 -2 -10 -13 -6 -15 6 -34 -9 -35 -28 0 -3 12 -20 26 -37 32 -39 17 -41 -19 -3 -29 30 -34 61 -15 80 15 15 50 12 56 -6z m4612 -2 c-6 -11 -13 -20 -16 -20 -2 0 0 9 6 20 6 11 13 20 16 20 2 0 0 -9 -6 -20z m938 -9 c3 -16 -7 -34 -29 -57 -44 -45 -60 -44 -20 1 17 20 31 40 31 46 0 17 -30 22 -47 8 -15 -13 -15 -12 -4 9 17 32 65 27 69 -7z m-4163 -14 c32 -32 34 -32 39 -13 l5 21 21 -21 c12 -12 24 -42 29 -73 11 -70 26 -82 26 -21 0 54 5 63 28 54 27 -10 47 -79 47 -162 0 -87 16 -126 43 -104 12 10 15 5 21 -35 9 -66 57 -146 136 -225 68 -68 71 -74 15 -32 -16 12 -34 22 -40 21 -5 -1 -14 8 -20 21 -5 12 -16 22 -23 22 -8 0 -12 6 -9 14 4 11 1 13 -10 9 -11 -4 -14 -2 -9 5 4 6 -3 16 -15 23 -17 9 -19 13 -8 20 11 7 11 9 -3 9 -20 0 -51 48 -73 115 -18 54 -37 83 -29 44 4 -18 0 -15 -14 11 -11 19 -18 39 -15 44 4 5 1 6 -4 3 -13 -8 -26 20 -16 35 3 6 1 8 -5 5 -5 -4 -21 12 -35 36 -23 39 -57 77 -57 64 0 -2 17 -31 38 -63 70 -106 100 -168 92 -188 -6 -19 -7 -18 -13 3 -4 15 -10 21 -19 15 -7 -4 -10 -4 -6 1 10 11 -66 71 -108 85 -19 7 -44 10 -55 7 -21 -6 -27 18 -6 27 8 3 7 8 -6 16 -24 15 -12 30 24 30 20 0 28 4 23 11 -4 7 -1 10 7 7 8 -3 13 -11 11 -17 -1 -7 2 -10 6 -7 14 8 44 -30 46 -57 0 -14 4 -23 7 -21 7 4 41 -30 37 -37 -2 -2 -1 -3 1 -2 2 2 11 -3 20 -10 14 -11 14 -10 0 13 -9 14 -34 57 -57 96 -61 106 -128 156 -208 156 -24 0 -48 -3 -54 -7 -22 -13 -9 15 16 34 28 22 74 27 103 11 15 -8 17 -6 13 15 -7 36 23 32 63 -8z m2778 26 c4 -3 0 -17 -9 -31 l-16 -25 23 17 c36 25 91 21 119 -9 29 -31 24 -37 -21 -23 -36 10 -41 9 -143 -40 -5 -3 -5 1 0 9 6 11 5 12 -8 2 -8 -7 -19 -9 -23 -5 -5 4 -5 1 -1 -6 4 -7 13 -9 19 -5 7 4 -3 -10 -20 -30 -18 -21 -40 -51 -49 -68 -8 -17 -18 -29 -21 -26 -7 8 16 48 44 78 16 17 21 29 14 34 -6 3 -15 -2 -19 -12 -21 -49 -75 -122 -58 -77 3 9 2 12 -5 9 -6 -4 -8 -13 -5 -21 7 -20 -4 -45 -17 -37 -6 3 -7 1 -3 -5 4 -7 2 -12 -4 -12 -6 0 -8 -5 -4 -12 5 -7 11 -5 21 7 7 11 13 15 13 9 -1 -12 -29 -50 -35 -46 -21 11 -39 -5 -61 -57 -20 -45 -30 -58 -43 -54 -13 4 -13 3 -2 -5 7 -5 10 -15 6 -22 -6 -9 -10 -9 -17 1 -6 10 -7 7 -3 -10 5 -17 4 -22 -6 -19 -17 6 -15 28 8 96 11 34 22 51 30 48 21 -8 33 29 33 101 0 81 13 134 39 157 18 17 20 17 30 -3 6 -11 11 -35 11 -53 0 -25 3 -29 10 -18 5 8 10 31 10 50 0 20 7 46 16 58 16 24 44 30 44 10 0 -7 8 -3 18 8 28 35 70 53 85 37z m979 -11 c-7 -2 -9 -8 -6 -14 4 -6 -2 -5 -15 1 -25 14 -28 23 -4 14 11 -4 14 -3 9 5 -5 8 -1 10 10 5 11 -4 13 -8 6 -11z m-4762 2 c0 -8 -19 -13 -24 -6 -3 5 1 9 9 9 8 0 15 -2 15 -3z m491 -11 c13 -16 12 -17 -3 -4 -10 7 -18 15 -18 17 0 8 8 3 21 -13z m639 -28 c0 -5 -5 -3 -10 5 -5 8 -10 20 -10 25 0 6 5 3 10 -5 5 -8 10 -19 10 -25z m2215 26 c3 -5 2 -12 -3 -15 -5 -3 -9 1 -9 9 0 17 3 19 12 6z m739 -3 c-3 -4 -11 -5 -19 -2 -8 3 -20 -6 -29 -23 -8 -15 -15 -22 -16 -14 0 21 29 50 50 48 10 -1 17 -5 14 -9z m-4450 -32 c14 -19 22 -37 17 -40 -14 -9 -61 33 -61 55 0 28 14 23 44 -15z m1065 0 c-3 -3 -11 5 -18 17 -13 21 -12 21 5 5 10 -10 16 -20 13 -22z m4431 20 c0 -8 -14 -26 -31 -40 -17 -14 -25 -26 -19 -26 6 0 8 -4 5 -10 -14 -23 15 -7 58 30 46 41 83 50 105 28 22 -22 13 -47 -25 -66 -43 -22 -141 -47 -150 -39 -3 3 11 9 31 12 37 7 45 18 24 31 -7 5 -8 3 -3 -6 5 -8 3 -11 -6 -8 -8 3 -23 1 -33 -5 -11 -5 -40 -11 -65 -13 l-45 -3 50 24 c27 13 45 24 41 24 -4 1 -3 10 3 21 6 11 16 17 22 14 7 -4 8 -2 4 5 -8 12 10 41 25 41 5 0 9 -6 9 -14z m-4954 -38 c-3 -13 -17 -31 -31 -41 -24 -17 -26 -17 -43 -1 -15 16 -15 17 0 12 9 -4 23 1 33 12 14 15 19 27 24 60 1 2 6 -1 12 -7 6 -6 9 -22 5 -35z m620 20 c-22 -31 -20 -81 4 -103 16 -14 23 -15 34 -6 19 16 32 8 38 -24 3 -13 2 -22 -3 -20 -4 3 -10 1 -14 -5 -3 -5 -22 -10 -41 -10 -24 0 -33 4 -28 12 4 6 3 8 -4 4 -18 -11 -42 24 -42 62 0 37 19 75 48 100 23 18 25 15 8 -10z m972 -3 c3 -11 1 -17 -3 -13 -5 4 -14 3 -21 -3 -15 -13 -28 5 -20 27 8 21 40 13 44 -11z m1230 2 c4 -20 -25 -34 -40 -19 -15 15 -1 44 19 40 10 -2 19 -11 21 -21z m966 -28 c36 -61 4 -139 -58 -139 -17 0 -36 3 -42 8 -5 4 -4 1 2 -7 7 -7 26 -14 43 -16 16 -1 36 -7 44 -13 10 -9 17 -8 27 1 7 6 3 -4 -8 -24 -22 -37 -30 -85 -12 -74 6 3 10 0 10 -8 0 -8 -7 -18 -16 -21 -8 -3 -12 -10 -9 -16 3 -6 -1 -7 -9 -4 -23 9 -20 70 4 104 23 32 18 41 -21 33 -38 -7 -79 32 -72 70 5 28 33 60 33 38 0 -15 33 -14 48 1 17 17 15 69 -4 97 -16 22 -15 22 4 10 11 -7 27 -25 36 -40z m630 20 c29 -34 30 -38 17 -58 -8 -12 -13 -12 -35 2 -26 18 -43 58 -31 76 10 18 22 13 49 -20z m-5024 -20 c25 -23 35 -36 24 -30 -12 6 -25 7 -29 3 -5 -4 -5 -1 -1 5 5 9 2 11 -7 7 -8 -3 -18 -1 -22 5 -3 6 0 11 7 11 8 0 6 5 -5 11 -42 24 -65 -18 -25 -45 33 -23 44 -20 17 5 l-24 20 23 -11 c28 -14 61 -22 84 -22 10 1 20 -3 23 -9 4 -5 14 -9 23 -9 11 1 7 6 -11 16 -16 9 -27 18 -24 20 2 3 26 -7 53 -21 35 -18 41 -23 20 -19 -18 4 -27 3 -23 -3 12 -20 -112 -6 -161 19 -49 24 -62 48 -42 73 21 25 53 16 100 -26z m575 21 c-3 -5 -16 -15 -28 -21 -22 -12 -22 -12 -3 10 19 21 43 30 31 11z m1280 -30 c-5 -22 -18 -38 -41 -52 -40 -24 -43 -31 -10 -22 32 8 39 -7 18 -37 -9 -13 -18 -28 -19 -34 -1 -5 -9 -33 -17 -62 -8 -28 -12 -61 -9 -72 3 -12 1 -21 -6 -21 -6 0 -10 3 -10 8 1 4 0 25 -1 47 -2 35 -3 37 -10 15 -7 -21 -8 -16 -11 25 -3 70 -1 85 20 128 10 21 13 33 6 27 -6 -5 -14 -7 -17 -4 -4 3 -15 -19 -27 -48 l-20 -53 0 38 c-1 38 18 87 47 120 17 20 37 23 26 5 -6 -10 -3 -9 8 0 17 13 70 32 76 26 2 -1 1 -17 -3 -34z m1949 17 c34 -2 69 -63 72 -125 l3 -57 -15 49 c-20 61 -38 43 -22 -20 8 -29 8 -54 1 -85 l-11 -44 -1 38 c0 20 -5 37 -9 37 -5 0 -6 -14 -4 -31 3 -22 1 -30 -7 -25 -6 4 -11 20 -11 37 0 16 -5 29 -11 29 -6 0 -9 7 -5 15 3 8 1 15 -4 15 -6 0 -10 5 -10 12 0 6 -8 20 -17 30 -15 17 -15 20 -3 29 8 5 22 6 30 3 8 -3 0 8 -18 23 -18 16 -35 41 -38 60 l-6 32 33 -10 c19 -6 42 -12 53 -12z m-2489 -36 c-9 -15 23 -39 48 -37 15 2 29 0 32 -4 2 -4 -1 -7 -8 -8 -7 0 -24 -3 -39 -5 -15 -2 -25 -1 -23 3 3 4 -4 19 -15 32 -14 19 -15 25 -5 25 8 0 12 -3 10 -6z m870 -1 c4 -6 1 -18 -6 -26 -11 -13 -14 -13 -27 0 -8 8 -11 19 -8 25 9 14 33 14 41 1z m1255 -10 c0 -25 -29 -38 -41 -19 -15 25 -10 39 16 39 18 0 25 -5 25 -20z m835 3 c0 -10 -8 -32 -17 -50 -12 -23 -13 -35 -4 -45 6 -7 1 -4 -10 9 -12 12 -26 19 -30 15 -5 -4 -2 1 5 11 8 9 11 20 7 24 -3 4 -12 -2 -20 -12 -12 -17 -13 -16 -11 6 1 18 7 23 29 24 15 0 32 8 37 18 6 9 11 17 13 17 1 0 2 -8 1 -17z m32 2 c0 -8 -4 -12 -9 -9 -5 3 -6 10 -3 15 9 13 12 11 12 -6z m-2947 -1 c0 -8 -19 -13 -24 -6 -3 5 1 9 9 9 8 0 15 -2 15 -3z m-1412 -29 c39 -14 82 -25 94 -25 27 0 102 -20 96 -25 -2 -2 -37 -9 -78 -16 -41 -6 -97 -20 -123 -30 -66 -26 -82 -24 -125 16 l-37 35 37 35 c21 19 44 35 51 35 7 0 46 -11 85 -25z m5167 6 c-4 -3 -24 -11 -46 -17 -45 -14 -51 2 -10 22 22 11 68 7 56 -5z m653 -12 c18 -17 32 -34 32 -38 0 -11 -53 -57 -73 -64 -10 -4 -50 4 -90 17 -40 13 -94 26 -122 30 -101 14 -109 30 -18 35 27 1 77 13 113 26 91 33 120 32 158 -6z m-5234 15 c22 -8 20 -23 -1 -19 -10 2 -28 4 -40 4 -13 1 -23 6 -23 11 0 11 39 13 64 4z m1437 -14 c6 0 7 4 4 10 -3 6 1 7 10 4 20 -8 13 -16 -19 -19 -19 -2 -23 1 -18 13 3 10 7 12 10 4 2 -7 8 -12 13 -12z m-60 -7 c2 1 3 0 1 -2 -6 -11 -39 -6 -39 5 0 9 5 10 17 4 10 -5 19 -8 21 -7z m124 7 c3 -6 -1 -7 -9 -4 -18 7 -21 14 -7 14 6 0 13 -4 16 -10z m1590 0 c-3 -5 -14 -10 -23 -9 -14 0 -13 2 3 9 27 11 27 11 20 0z m1245 -37 c0 -1 -6 0 -13 3 -7 2 -22 -4 -32 -16 -20 -23 -14 -26 15 -8 16 10 22 10 32 -1 11 -12 10 -13 -6 -7 -10 3 -24 2 -30 -3 -9 -7 -34 -8 -68 -2 -4 0 -12 10 -18 21 -9 16 -6 22 15 36 24 15 27 15 44 0 26 -24 37 -20 15 6 -18 20 -17 20 14 -2 17 -13 32 -25 32 -27z m-4386 27 c7 0 23 -9 36 -20 17 -15 19 -21 9 -25 -8 -2 -27 -9 -43 -15 -23 -8 -40 -7 -78 7 -26 9 -48 20 -48 23 0 10 84 39 98 34 8 -2 19 -4 26 -4z m140 -17 c8 -20 -11 -43 -35 -43 -25 0 -36 40 -14 56 20 15 41 9 49 -13z m121 7 c-10 -11 -21 -18 -23 -15 -3 3 3 12 14 20 27 20 30 18 9 -5z m55 0 c-15 -4 -24 -13 -24 -23 1 -9 -3 -17 -8 -17 -6 0 -5 -8 3 -17 11 -15 11 -16 -1 -6 -34 31 -3 91 39 75 13 -5 11 -7 -9 -12z m2895 2 c-3 -3 -11 0 -18 7 -9 10 -8 11 6 5 10 -3 15 -9 12 -12z m1318 -4 c14 -22 2 -48 -23 -48 -11 0 -25 9 -32 20 -13 21 -38 27 -38 10 0 -5 6 -10 13 -10 8 0 7 -4 -3 -10 -8 -5 -22 -9 -30 -9 -10 0 -8 3 5 9 11 5 14 9 6 9 -11 1 -11 4 -1 16 10 12 10 15 0 15 -8 0 -11 2 -8 5 3 3 16 1 29 -4 17 -6 28 -5 37 6 16 16 31 13 45 -9z m172 2 l50 -18 -30 -11 c-16 -6 -42 -16 -56 -22 -20 -8 -36 -6 -68 7 -48 19 -49 33 0 50 44 16 45 16 104 -6z m-4950 3 c14 -5 12 -8 -11 -19 -16 -7 -22 -13 -14 -13 8 1 24 1 35 0 19 -2 19 -2 2 -12 -26 -15 -67 -3 -67 20 0 30 19 39 55 24z m85 -22 c0 -24 -4 -29 -20 -28 -15 1 -20 8 -20 29 0 21 5 28 20 28 15 0 20 -7 20 -29z m350 19 c-8 -5 -19 -10 -25 -10 -5 0 -3 5 5 10 8 5 20 10 25 10 6 0 3 -5 -5 -10z m1355 0 c3 -6 -1 -7 -9 -4 -18 7 -21 14 -7 14 6 0 13 -4 16 -10z m1415 -5 c25 -30 -10 -61 -38 -33 -7 7 -8 17 -1 30 12 22 23 23 39 3z m1860 -16 c0 -23 -4 -30 -14 -26 -8 3 -17 1 -20 -6 -2 -7 -5 5 -5 26 -1 31 2 37 19 37 16 0 20 -7 20 -31z m103 17 c3 -8 0 -22 -7 -31 -23 -32 -86 3 -69 38 7 13 71 8 76 -7z m-3409 -10 c92 -38 115 -180 36 -221 -38 -20 -52 -19 -82 5 -37 29 -41 58 -12 86 19 20 28 23 44 14 22 -12 27 -46 8 -53 -7 -3 -3 -6 9 -6 47 -2 58 75 17 108 -81 64 -192 -31 -182 -153 7 -86 69 -186 148 -238 14 -9 20 -17 14 -17 -7 -1 -36 20 -65 46 -29 26 -47 39 -42 28 16 -30 53 -60 101 -84 45 -23 56 -37 21 -26 -15 5 -19 4 -14 -5 21 -34 -125 75 -174 130 -87 97 -141 217 -94 208 11 -2 20 -18 25 -43 5 -22 14 -44 20 -50 7 -7 9 -2 4 18 -4 17 -3 26 2 23 5 -3 12 -24 16 -48 4 -24 15 -47 26 -55 11 -8 20 -21 20 -30 0 -9 3 -14 6 -10 3 3 -6 31 -21 62 -25 51 -27 63 -22 137 4 62 10 88 28 112 50 68 102 88 163 62z m186 -5 c0 -27 -19 -36 -37 -18 -18 18 -9 37 18 37 12 0 19 -7 19 -19z m1533 -13 c15 -11 37 -38 49 -61 37 -74 22 -219 -30 -280 -8 -9 -13 -19 -10 -22 11 -11 66 73 72 111 4 21 12 46 17 54 7 11 9 5 5 -20 -7 -38 4 -21 20 35 11 36 28 36 32 0 4 -30 -64 -159 -79 -149 -5 3 -8 2 -7 -3 8 -23 -132 -141 -178 -149 -15 -3 -31 -7 -36 -10 -4 -3 -8 -3 -8 0 0 3 14 13 31 21 39 20 109 84 109 99 0 6 -14 -4 -30 -21 -33 -35 -118 -89 -126 -80 -3 3 12 15 33 25 52 27 119 101 149 165 25 54 33 150 14 162 -6 4 -8 10 -5 15 3 5 0 12 -6 15 -5 4 -8 13 -5 21 7 18 -32 43 -75 50 -43 6 -96 -25 -105 -61 -9 -37 10 -75 38 -75 17 0 19 3 10 9 -23 14 -10 46 20 49 40 5 65 -36 46 -75 -27 -56 -96 -52 -141 9 -18 24 -18 29 -6 44 9 12 10 15 2 10 -8 -4 -13 -1 -13 9 0 9 4 14 9 11 4 -3 13 6 20 20 15 34 13 43 -4 20 -11 -15 -15 -16 -15 -5 0 21 51 68 86 79 37 11 82 3 117 -22z m-2911 12 c3 -25 2 -30 -6 -32 -5 -2 -11 7 -12 20 -2 12 1 22 6 22 6 0 11 -4 12 -10z m23 0 c3 -5 1 -10 -4 -10 -6 0 -11 5 -11 10 0 6 2 10 4 10 3 0 8 -4 11 -10z m3330 1 c-3 -5 9 -11 27 -13 32 -3 53 -28 24 -28 -9 0 -16 -4 -16 -10 0 -5 5 -10 10 -10 6 0 10 -4 10 -10 0 -5 -14 -10 -30 -10 -51 0 -105 -35 -160 -105 -28 -36 -56 -63 -61 -60 -5 4 -6 0 -4 -8 3 -7 -26 -47 -70 -93 -42 -43 -74 -74 -70 -67 13 26 -16 21 -52 -9 -74 -63 -77 -62 -18 2 34 36 71 80 84 98 18 26 26 31 32 20 13 -20 11 -31 -6 -24 -9 3 -15 1 -14 -7 3 -24 -1 -38 -10 -32 -14 8 -25 -15 -14 -26 10 -10 56 45 115 133 14 21 27 35 30 33 3 -3 8 1 12 10 4 11 2 14 -7 10 -6 -4 -3 1 7 9 17 14 15 20 -5 18 -4 -1 -5 8 -2 19 3 11 11 18 19 15 7 -3 15 -1 18 5 2 5 3 4 2 -3 -2 -7 -9 -12 -15 -10 -14 3 -15 -15 -1 -23 6 -4 7 -12 4 -18 -4 -7 -3 -8 2 -4 5 5 9 16 9 25 0 9 5 17 12 17 7 0 18 7 25 15 11 12 11 12 -4 1 -21 -16 -23 -4 -4 21 7 10 17 14 21 10 4 -4 2 4 -5 17 -9 18 -9 26 1 35 9 8 11 7 6 -9 -4 -11 12 1 36 27 23 27 48 48 55 48 7 0 11 -4 7 -9z m278 -6 c4 -8 3 -16 -1 -19 -4 -3 -9 4 -9 15 -2 23 3 25 10 4z m-3758 -15 c13 -6 15 -9 5 -9 -8 0 -22 4 -30 9 -18 12 -2 12 25 0z m371 -24 c24 -24 34 -43 34 -65 0 -40 -13 -40 -25 1 -6 17 -20 38 -32 46 -22 14 -23 13 -23 -12 0 -17 5 -26 16 -26 11 0 14 4 8 13 -5 7 -1 4 9 -7 19 -20 16 -58 -5 -84 -15 -17 -63 -11 -63 8 0 8 5 14 11 13 17 -3 8 46 -12 68 -9 10 -29 19 -43 18 -24 -1 -24 -1 6 -10 32 -9 50 -39 38 -60 -5 -6 -12 -3 -22 10 -17 25 -68 28 -101 5 -28 -19 -52 -64 -53 -101 l-1 -28 -8 30 -8 30 -2 -30 c-1 -16 -3 -40 -6 -53 -2 -13 1 -33 7 -45 10 -21 9 -21 -5 -3 -39 48 -32 168 12 231 41 59 93 85 171 85 58 0 65 -2 97 -34z m284 5 c-6 -12 -15 -21 -21 -21 -6 0 -7 -4 -4 -10 3 -5 1 -10 -5 -10 -7 0 -9 8 -4 23 7 22 7 22 -15 2 -19 -16 -26 -17 -53 -7 -42 16 -50 6 -8 -11 23 -10 28 -16 17 -20 -16 -6 -50 24 -53 48 -2 12 2 13 18 4 18 -9 47 -8 96 4 7 2 17 8 24 15 17 17 22 7 8 -17z m3162 11 c-31 -24 -62 -73 -62 -98 0 -33 46 -76 78 -74 44 3 54 1 50 -12 -7 -20 -77 -27 -107 -12 -31 16 -39 35 -40 89 -1 47 18 79 63 106 39 24 48 24 18 1z m261 -15 c57 -43 90 -108 90 -176 0 -35 -6 -67 -17 -86 -9 -16 -14 -21 -10 -10 3 11 8 45 10 75 2 52 2 53 -4 10 -8 -51 -16 -45 -38 29 -24 82 -93 116 -142 70 -19 -17 -23 -18 -28 -4 -8 21 12 43 50 54 29 8 29 9 6 10 -54 2 -91 -54 -57 -88 10 -10 8 -15 -7 -26 -19 -15 -52 -6 -68 19 -19 29 2 96 31 96 6 0 11 5 11 10 0 18 -18 10 -39 -16 -12 -15 -21 -35 -21 -45 0 -11 -4 -19 -10 -19 -5 0 -10 14 -10 31 0 22 10 41 35 66 35 35 36 35 109 31 61 -3 79 -8 109 -31z m-4203 13 c0 -15 -39 -32 -63 -28 -19 4 -18 6 13 20 42 20 50 21 50 8z m586 -24 c19 -19 34 -43 34 -55 0 -12 4 -21 9 -21 10 0 7 31 -5 53 -4 6 7 -1 24 -17 25 -23 32 -38 32 -68 0 -38 -15 -51 -26 -23 -4 8 -10 12 -15 9 -13 -8 -11 10 3 24 9 9 8 12 -5 12 -11 0 -17 -8 -17 -23 0 -31 -29 -70 -47 -63 -8 3 -11 1 -8 -5 8 -13 -44 -1 -64 15 -11 8 -13 8 -7 -1 5 -9 2 -11 -8 -7 -9 3 -16 10 -16 15 0 10 11 12 50 10 36 -3 80 34 80 66 0 29 -33 88 -58 103 -12 6 -13 9 -3 10 7 0 28 -15 47 -34z m4464 7 c66 -22 92 -41 88 -65 -4 -28 -29 -42 -61 -34 -35 8 -35 25 0 23 45 -3 41 28 -6 52 -22 12 -46 21 -53 21 -7 0 6 -9 30 -20 23 -10 42 -26 42 -34 0 -23 -38 -14 -94 22 -27 18 -58 35 -69 38 -16 5 -17 8 -6 15 16 10 63 3 129 -18z m-5570 1 c-85 -22 -138 -72 -87 -82 18 -4 89 51 81 62 -2 3 -1 4 2 2 3 -3 26 4 51 15 66 28 77 23 14 -6 -30 -14 -51 -28 -48 -31 3 -3 19 2 36 11 17 8 31 13 31 11 0 -3 -14 -13 -31 -21 -30 -16 -30 -17 -12 -37 10 -12 13 -18 7 -15 -7 4 -14 1 -17 -7 -10 -25 18 -12 52 24 l32 35 -30 -44 c-31 -44 -40 -84 -21 -96 6 -4 17 -1 25 5 10 8 15 9 15 2 0 -19 -33 -31 -53 -20 -15 8 -18 17 -12 45 4 21 3 33 -3 29 -13 -8 -35 20 -27 34 3 6 11 7 17 4 7 -5 8 -2 3 6 -6 10 -14 7 -32 -14 -28 -32 -25 -51 6 -50 12 0 20 -4 18 -10 -2 -6 -17 -11 -33 -11 -44 0 -45 38 -3 81 41 42 29 45 -18 3 -39 -33 -78 -36 -97 -7 -8 14 -6 22 10 39 24 23 115 58 154 58 14 0 0 -7 -30 -15z m5074 -4 c7 -7 -1 -10 -21 -10 -17 0 -37 8 -44 17 -13 15 -11 16 21 9 19 -3 39 -11 44 -16z m-2924 -5 c11 -13 11 -18 0 -28 -10 -10 -11 -9 -5 3 6 12 5 13 -6 3 -19 -18 -29 -16 -29 5 0 34 20 42 40 17z m1258 -10 c5 -22 -18 -37 -35 -23 -17 13 -17 35 0 41 19 8 32 2 35 -18z m863 -9 c5 3 6 -2 3 -10 -8 -20 -13 -20 -31 2 -8 9 -11 11 -7 3 3 -7 0 -17 -7 -22 -20 -12 -26 -11 -33 7 -5 12 -2 15 10 10 14 -5 15 -4 5 8 -22 26 -2 38 26 16 14 -11 29 -17 34 -14z m1056 28 c-3 -3 -12 -4 -19 -1 -8 3 -5 6 6 6 11 1 17 -2 13 -5z m160 -30 c53 -31 85 -71 81 -103 -4 -33 -45 -42 -65 -15 -20 27 -16 39 6 20 21 -19 41 -14 41 9 0 23 -42 63 -100 95 -30 17 -44 28 -30 25 14 -4 44 -18 67 -31z m-5084 -6 c58 -29 211 -178 183 -178 -3 0 -34 29 -69 63 -128 126 -254 153 -330 69 -42 -47 -25 -145 28 -158 34 -9 71 2 79 23 6 15 5 16 -5 6 -21 -21 -49 -15 -61 12 -10 22 -8 29 12 50 29 30 40 31 74 4 17 -13 26 -30 26 -49 0 -35 -10 -61 -20 -55 -4 3 -14 -3 -21 -12 -12 -14 -12 -16 0 -8 9 5 12 4 8 -3 -4 -5 -17 -8 -30 -5 -18 4 -20 3 -7 -7 13 -10 12 -11 -5 -5 -11 4 -29 9 -40 12 -16 4 -17 3 -5 -6 13 -9 13 -11 -2 -11 -10 0 -30 12 -46 28 -15 15 -20 21 -10 13 23 -18 23 -9 -2 31 -16 26 -20 29 -20 13 0 -17 -2 -17 -10 -5 -15 23 -12 77 6 112 49 94 160 121 267 66z m292 2 c18 -35 18 -40 4 -77 -8 -22 -12 -24 -19 -13 -7 11 -10 2 -10 -30 0 -29 -3 -40 -9 -31 -7 11 -9 11 -13 0 -3 -8 -17 9 -32 39 -29 57 -28 74 4 54 17 -10 18 -9 13 23 -3 19 -3 41 0 50 10 26 45 18 62 -15z m620 20 c-3 -5 -3 -16 2 -22 8 -13 9 -19 12 -39 0 -6 8 -9 16 -5 8 3 14 2 14 -2 -5 -33 23 -49 42 -26 11 13 10 15 -3 12 -9 -1 -16 2 -15 7 1 6 7 8 12 6 6 -2 15 -4 22 -4 13 0 -6 -37 -20 -37 -4 0 -5 -6 -1 -12 6 -9 3 -9 -9 0 -9 8 -22 10 -28 6 -8 -4 -9 -3 -5 4 5 8 1 10 -10 5 -11 -4 -13 -8 -6 -11 24 -8 11 -22 -18 -18 -16 2 -28 0 -25 -4 2 -4 -8 -6 -23 -4 -14 1 -32 -2 -39 -8 -8 -6 -16 -8 -20 -4 -3 3 -2 6 4 6 6 0 9 15 8 33 -2 17 -4 32 -5 32 -1 0 -3 8 -5 17 -2 11 2 15 12 11 10 -4 14 0 11 13 -2 13 2 18 12 16 8 -2 29 -6 45 -8 26 -3 28 -2 13 10 -13 10 -15 15 -6 24 15 15 21 16 13 2z m2320 0 c-17 -7 -17 -9 -2 -9 9 -1 17 -5 17 -11 0 -5 5 -10 11 -10 6 0 9 7 6 14 -4 9 -1 13 6 10 7 -2 13 -14 13 -27 1 -12 7 -40 12 -61 6 -22 8 -45 4 -50 -3 -6 -5 -21 -4 -33 3 -22 -20 -77 -37 -87 -5 -3 -2 17 6 46 13 42 13 60 4 97 -7 25 -13 54 -14 63 -1 9 -3 15 -6 13 -2 -3 -10 0 -16 5 -7 6 -24 11 -38 12 -14 1 -24 4 -22 7 11 11 51 29 65 29 9 0 7 -3 -5 -8z m1249 1 c9 -14 9 -54 1 -76 -7 -16 -6 -18 6 -7 16 15 39 16 39 1 0 -6 -12 -30 -26 -55 -22 -37 -28 -42 -39 -30 -8 8 -12 27 -10 46 3 25 2 30 -9 21 -7 -6 -16 -8 -19 -4 -13 13 -7 82 9 97 17 18 40 21 48 7z m426 -13 c52 -27 90 -78 90 -122 0 -43 -39 -118 -70 -134 -35 -18 -98 -8 -126 20 -35 36 -36 86 -2 118 30 28 64 26 84 -5 23 -36 6 -75 -33 -75 -22 0 -25 -2 -13 -10 25 -16 58 -11 87 14 39 34 39 93 -1 135 -79 83 -195 57 -328 -73 -55 -53 -68 -63 -68 -50 0 11 106 117 150 149 79 58 158 69 230 33z m115 -18 c4 0 3 6 -1 13 -4 7 -3 9 2 4 5 -5 9 -12 9 -15 1 -17 27 -52 37 -49 7 1 13 -17 15 -45 3 -39 0 -49 -16 -58 -15 -7 -23 -6 -35 6 -21 21 -20 22 9 16 20 -3 25 0 25 17 0 33 -26 76 -67 112 -25 21 -28 26 -11 16 15 -10 30 -17 33 -17z m-5472 -1 c-4 -12 -11 -18 -20 -15 -8 3 -11 1 -8 -4 3 -6 1 -10 -4 -10 -6 0 -11 6 -11 13 0 11 15 22 47 36 0 1 -1 -8 -4 -20z m598 -45 c7 -4 3 9 -10 29 -25 42 -19 48 16 15 25 -23 30 -52 11 -64 -13 -9 -68 52 -68 76 0 8 9 1 19 -16 11 -18 25 -35 32 -40z m1394 54 c4 -3 -7 -5 -24 -4 -16 1 -28 -1 -25 -6 3 -4 -4 -13 -16 -20 -11 -7 -20 -17 -20 -21 0 -5 -7 -15 -15 -23 -18 -19 -20 -44 -2 -44 8 0 7 -4 -3 -11 -11 -7 -12 -12 -3 -15 7 -3 9 -12 7 -19 -3 -8 1 -29 10 -46 24 -48 19 -60 -5 -14 -12 21 -24 65 -26 96 -5 47 -2 64 18 98 21 38 25 41 61 38 20 -2 40 -6 43 -9z m2395 -3 c-7 -8 -17 -12 -22 -9 -6 4 -5 10 3 15 22 14 33 10 19 -6z m683 -5 c3 -10 2 -18 -2 -17 -4 1 -19 -11 -33 -27 -41 -48 -67 -13 -27 38 24 31 55 34 62 6z m-3048 0 c3 -5 1 -10 -4 -10 -6 0 -11 5 -11 10 0 6 2 10 4 10 3 0 8 -4 11 -10z m3505 -11 c0 -5 7 -9 15 -9 18 0 49 -46 40 -60 -10 -15 -36 8 -33 29 2 8 -1 16 -7 16 -20 1 -55 26 -50 35 7 11 35 2 35 -11z m-5090 -16 c30 -16 65 -44 79 -63 l25 -35 -24 21 c-60 52 -150 81 -195 64 -22 -8 -31 -8 -38 2 -7 10 -8 9 -4 -3 3 -8 -4 -26 -15 -40 -19 -23 -19 -23 -8 -1 6 13 9 28 7 35 -6 19 44 47 84 47 19 0 60 -12 89 -27z m3915 -25 c0 -34 6 -53 23 -70 23 -25 21 -41 -3 -31 -8 2 -11 12 -8 21 5 14 3 14 -16 -2 -25 -23 -92 -29 -84 -9 7 17 23 17 23 1 0 -10 3 -9 9 1 5 7 13 11 18 8 5 -3 15 -2 23 4 8 5 10 9 5 9 -6 0 -11 9 -11 20 0 11 4 20 9 20 5 0 4 7 -3 15 -9 11 -9 15 -1 15 7 0 9 5 5 12 -6 9 -9 9 -11 1 -3 -7 -10 -10 -18 -7 -7 3 -16 1 -19 -4 -3 -5 2 -9 11 -8 9 0 18 -4 20 -10 2 -7 -4 -11 -14 -10 -11 0 -18 -6 -18 -18 0 -11 -7 -21 -15 -23 -12 -4 -12 -3 -1 5 9 7 10 12 2 16 -6 4 -9 12 -6 17 3 5 -1 6 -9 3 -21 -8 -20 5 2 23 9 8 11 11 4 8 -8 -4 -20 1 -28 11 -13 18 -15 18 -27 2 -8 -10 -16 -16 -18 -15 -2 2 -13 -5 -23 -16 -15 -16 -16 -19 -3 -14 8 3 21 -1 27 -9 10 -11 10 -14 1 -14 -7 0 -9 -5 -5 -11 5 -8 10 -6 16 5 5 9 14 16 21 16 8 0 8 -3 -2 -9 -9 -6 -10 -11 -2 -15 6 -4 8 -13 5 -19 -4 -7 -3 -8 2 -4 5 5 9 16 9 24 0 9 5 18 12 20 19 7 11 -37 -9 -48 -14 -7 -26 -1 -58 27 -22 20 -37 40 -34 45 3 5 0 9 -7 9 -8 0 -9 3 0 13 6 8 9 17 6 21 -3 3 1 2 7 -4 16 -14 31 -13 22 2 -4 7 -3 8 5 4 6 -4 18 -2 26 4 12 10 18 10 29 1 10 -8 21 -9 33 -3 10 5 23 7 30 5 6 -2 14 1 18 7 14 23 29 2 30 -42z m965 36 c43 -18 64 -43 54 -68 -5 -12 -11 -9 -31 14 -48 58 -132 49 -232 -25 -69 -51 -81 -46 -22 8 55 49 124 84 173 86 10 1 36 -6 58 -15z m181 -65 c6 -17 9 -32 6 -36 -10 -9 -37 18 -37 37 0 9 -9 29 -20 43 -30 37 -24 45 9 13 16 -16 35 -41 42 -57z m-5343 11 c-26 -49 -55 -68 -43 -29 4 13 13 29 21 35 8 6 14 15 14 21 0 13 24 35 28 25 1 -5 -8 -29 -20 -52z m2051 41 c19 -12 6 -41 -19 -41 -13 0 -20 7 -20 18 0 31 14 39 39 23z m1239 -17 c2 -12 -4 -24 -12 -27 -19 -7 -40 18 -32 39 8 22 40 13 44 -12z m-2295 -1 c-7 -19 -22 -33 -36 -33 -10 0 25 49 35 50 4 0 4 -8 1 -17z m3088 10 c0 -5 2 -17 3 -29 2 -21 -17 -26 -41 -11 -9 6 -8 13 5 27 18 20 31 25 33 13z m270 -39 c13 -7 18 -13 11 -14 -26 0 -52 21 -51 43 0 20 1 20 8 3 4 -10 18 -24 32 -32z m-4456 7 c3 -5 1 -12 -5 -16 -5 -3 -10 1 -10 9 0 18 6 21 15 7z m4193 -105 c17 -4 47 -3 68 3 43 12 58 6 49 -17 -4 -11 4 -7 22 9 34 32 55 40 74 28 12 -7 11 -13 -3 -39 -23 -40 -8 -38 35 5 19 19 44 35 55 35 11 0 28 3 38 7 15 6 16 2 11 -32 -3 -20 -13 -45 -22 -55 -11 -12 -13 -20 -6 -25 22 -13 10 -27 -43 -51 -37 -17 -63 -23 -80 -18 -19 4 -28 2 -32 -11 -10 -25 13 -35 87 -35 77 0 149 32 188 83 l25 32 -26 -23 c-14 -13 -32 -25 -39 -26 -8 -1 -33 -12 -56 -24 -23 -12 -48 -22 -55 -22 -7 0 5 9 27 19 55 25 95 74 95 116 0 39 14 52 37 33 14 -11 15 -10 9 10 -9 28 11 82 30 82 38 0 74 -86 44 -105 -18 -11 -11 -23 10 -18 36 9 23 -28 -25 -72 -46 -42 -49 -55 -11 -55 39 0 80 35 111 95 37 72 72 89 61 30 l-7 -37 39 41 c21 22 44 41 51 41 18 0 26 -30 12 -51 -11 -18 -9 -18 26 1 45 24 90 26 121 4 22 -15 22 -17 7 -35 -16 -17 -16 -18 9 -25 32 -8 56 -39 56 -73 l0 -24 -23 21 c-39 37 -94 53 -168 50 -38 -1 -69 -6 -69 -11 0 -4 -5 -5 -10 -2 -18 11 1 26 23 20 16 -5 18 -4 8 3 -11 8 -9 11 8 17 13 4 20 9 17 12 -3 3 -26 -7 -51 -21 -25 -15 -45 -24 -45 -20 0 3 -7 1 -15 -6 -8 -7 -24 -10 -35 -7 -11 3 -18 2 -15 -3 2 -4 -5 -16 -17 -26 -12 -11 -18 -13 -14 -6 10 17 -34 9 -66 -12 -14 -9 -28 -13 -31 -9 -4 3 -7 1 -7 -6 0 -7 -6 -11 -12 -8 -7 2 -29 -1 -48 -8 -48 -16 -214 -19 -204 -4 5 9 -1 10 -20 5 -20 -5 -26 -3 -21 5 5 8 1 9 -14 4 -36 -11 -149 49 -245 129 -24 20 -26 24 -10 23 11 -1 18 4 16 11 -1 8 2 11 8 7 6 -3 7 -11 4 -17 -4 -6 1 -8 14 -4 12 4 23 2 28 -5 5 -9 2 -10 -9 -6 -10 3 -17 4 -17 1 0 -11 112 -54 138 -53 18 0 7 7 -36 20 -35 11 -62 22 -60 25 3 2 24 -3 48 -11 45 -16 98 -19 117 -7 6 4 -12 7 -40 8 -65 1 -150 41 -212 100 -43 41 -66 76 -25 39 25 -22 26 -13 3 23 -13 20 -3 14 33 -19 28 -26 65 -50 82 -53z m78 68 c1 -13 -5 -20 -17 -20 -13 0 -15 4 -8 13 6 7 7 17 3 24 -4 7 -2 10 7 7 8 -3 14 -13 15 -24z m-3416 -14 c7 -16 10 -39 7 -50 -5 -21 7 -28 18 -10 12 19 25 -1 25 -36 0 -25 10 -45 38 -76 20 -23 30 -38 22 -33 -8 5 -23 20 -34 33 -15 19 -21 21 -28 10 -7 -9 -8 -8 -4 6 5 15 4 17 -8 7 -11 -9 -18 -5 -35 21 -11 18 -21 30 -21 25 0 -20 54 -90 89 -113 35 -23 137 -47 166 -39 6 2 23 6 38 10 19 4 27 11 25 22 -2 12 -16 17 -52 19 -50 3 -122 45 -110 65 3 5 10 7 15 3 5 -3 -2 11 -16 32 -30 44 -34 88 -7 80 9 -3 29 -8 43 -11 15 -4 39 -20 55 -36 34 -35 50 -38 28 -4 -32 49 21 63 68 18 l28 -27 0 23 c0 20 4 22 23 16 75 -24 119 -13 187 49 19 17 28 22 20 11 -7 -11 -27 -32 -44 -47 -17 -14 -27 -30 -23 -34 4 -4 27 14 52 39 25 26 45 43 45 39 0 -20 -104 -105 -157 -129 -42 -19 -71 -26 -116 -25 -59 1 -60 1 -32 -14 23 -12 39 -13 74 -5 54 11 68 6 20 -8 -19 -5 -27 -10 -18 -10 25 -1 91 28 84 38 -2 5 2 12 11 15 10 4 13 2 8 -6 -4 -7 -3 -8 5 -4 6 4 9 12 6 17 -4 5 3 9 13 9 11 0 25 7 32 15 9 11 16 12 25 5 6 -5 16 -7 21 -3 5 4 -11 -14 -36 -40 -41 -44 -67 -65 -41 -33 7 8 8 17 4 19 -13 8 -29 -6 -28 -25 0 -10 -3 -18 -7 -18 -5 0 -13 0 -20 0 -6 0 -3 7 8 16 18 14 18 15 -4 4 -19 -9 -21 -14 -11 -26 9 -11 2 -18 -42 -39 -30 -14 -62 -22 -73 -19 -11 4 -16 2 -12 -4 12 -20 -132 -38 -174 -22 -3 1 -17 1 -31 0 -38 -2 -145 28 -201 56 -55 28 -63 26 -15 -5 17 -11 27 -21 22 -21 -6 0 -21 7 -33 16 -13 9 -26 13 -29 10 -12 -12 -42 15 -38 34 2 11 -1 22 -6 26 -5 3 -9 2 -8 -3 3 -20 -2 -34 -11 -28 -6 4 -8 10 -5 15 3 5 1 11 -4 14 -5 4 -13 1 -17 -5 -5 -8 -3 -9 7 -4 8 5 11 4 6 0 -9 -11 -48 -14 -41 -4 2 4 0 10 -6 14 -5 3 -10 0 -10 -8 0 -10 -7 -13 -20 -10 -11 3 -18 9 -15 13 3 5 0 12 -6 16 -8 4 -9 3 -5 -4 5 -8 -2 -12 -21 -13 -59 -2 -104 -9 -116 -19 -6 -5 -27 -21 -44 -36 l-33 -26 0 24 c0 27 33 62 68 73 22 6 22 8 6 19 -26 19 -10 44 33 52 31 6 47 2 85 -19 46 -26 65 -24 33 3 -23 19 -18 40 9 40 15 0 34 -12 49 -30 32 -37 51 -40 35 -5 -6 14 -8 28 -5 31 14 15 39 -9 61 -60 17 -37 36 -62 58 -76 62 -38 113 -19 57 22 -27 20 -59 65 -59 84 0 3 9 4 21 1 16 -4 19 -2 14 11 -18 43 -17 64 5 88 31 32 45 30 60 -6z m523 16 c4 -11 1 -13 -10 -9 -12 5 -14 3 -8 -7 5 -8 4 -11 -2 -7 -6 4 -18 -2 -28 -13 -9 -10 -25 -18 -35 -17 -22 1 -16 12 7 12 9 0 18 7 20 15 4 13 3 13 -6 0 -5 -8 -13 -11 -18 -7 -10 11 17 27 34 20 7 -3 16 2 19 11 8 20 20 21 27 2z m804 -2 c3 -8 0 -21 -7 -27 -10 -9 -11 -9 -5 3 8 13 6 13 -7 2 -19 -15 -33 0 -24 23 7 20 35 19 43 -1z m1191 -10 c2 -12 -4 -24 -12 -27 -19 -7 -40 18 -32 39 8 22 40 13 44 -12z m1769 9 c0 -9 -4 -10 -14 -2 -7 6 -13 12 -13 14 0 1 6 2 13 2 8 0 14 -6 14 -14z m-40 -7 c0 -8 -6 -12 -15 -9 -11 5 -11 7 0 14 7 5 13 9 14 9 0 0 1 -6 1 -14z m-3916 -38 c-10 -11 -11 -9 -5 6 6 15 4 17 -6 11 -9 -6 -11 -4 -5 4 5 9 10 10 18 2 8 -8 7 -14 -2 -23z m70 20 c0 -10 2 -10 6 0 2 6 9 12 14 12 16 0 10 -15 -12 -28 -16 -10 -19 -10 -13 -1 5 9 2 11 -9 6 -11 -4 -14 -2 -10 9 6 17 23 19 24 2z m352 -32 c15 -24 27 -49 27 -55 0 -7 5 -9 13 -5 6 4 9 3 4 -1 -4 -5 3 -20 15 -34 13 -14 6 -11 -14 8 -21 19 -35 38 -32 43 3 4 -2 11 -10 14 -9 3 -16 13 -16 21 0 8 -5 11 -12 7 -6 -4 -8 -3 -5 3 4 6 0 14 -9 17 -8 3 -12 10 -9 16 10 17 19 11 48 -34z m2981 26 c3 -5 -1 -9 -9 -9 -8 0 -12 4 -9 9 3 4 7 8 9 8 2 0 6 -4 9 -8z m-3134 -32 c-6 -11 -13 -20 -16 -20 -2 0 0 9 6 20 6 11 13 20 16 20 2 0 0 -9 -6 -20z m750 5 c15 -18 8 -28 -20 -32 -14 -2 -20 3 -20 15 0 34 20 42 40 17z m-1785 -16 c15 -15 -17 -10 -45 7 l-25 15 30 -6 c17 -4 34 -11 40 -16z m1557 -17 c10 -26 10 -26 18 -6 5 12 14 25 20 29 15 9 60 -3 60 -16 0 -6 -6 -7 -12 -4 -7 4 -4 -1 6 -9 17 -14 17 -16 3 -16 -29 0 -68 -23 -63 -37 3 -8 1 -11 -4 -8 -6 3 -10 -2 -10 -11 0 -16 -1 -16 -16 2 -14 18 -15 18 -9 -6 l6 -25 -25 28 c-14 15 -26 24 -26 20 0 -5 5 -14 12 -21 7 -7 8 -12 2 -12 -6 0 -21 18 -33 40 l-23 41 28 -7 c15 -4 25 -3 22 2 -9 14 11 56 23 49 5 -4 15 -19 21 -33z m1368 19 c0 -26 -17 -36 -35 -21 -18 15 -8 40 16 40 12 0 19 -7 19 -19z m1237 4 c0 -8 -4 -12 -9 -9 -5 3 -6 10 -3 15 9 13 12 11 12 -6z m-1073 -16 l14 -21 11 21 c16 29 37 26 45 -5 5 -19 11 -24 26 -19 27 8 25 -3 -6 -48 -29 -44 -67 -49 -72 -9 -2 12 -8 22 -14 22 -5 0 -7 -7 -4 -16 3 -9 2 -12 -5 -9 -5 4 -7 16 -3 27 3 12 2 18 -3 15 -6 -4 -19 2 -31 13 -14 14 -22 16 -25 7 -4 -8 -6 -6 -6 4 -2 39 49 52 73 18z m1063 -24 c0 -8 -4 -12 -9 -9 -5 3 -6 10 -3 15 9 13 12 11 12 -6z m-1259 -29 c-2 -11 -10 -22 -19 -24 -21 -4 -33 26 -18 44 15 18 41 5 37 -20z m-1073 14 c9 -15 -14 -40 -31 -33 -22 8 -18 43 5 43 11 0 23 -5 26 -10z m-652 -12 c28 -14 123 -100 124 -112 1 -5 7 -13 15 -17 23 -15 -6 -9 -32 7 l-25 15 25 -6 25 -6 -25 20 c-15 12 -33 18 -44 15 -11 -4 -16 -2 -12 4 4 6 -2 8 -16 4 -20 -5 -19 -7 12 -18 l35 -13 -35 5 c-63 9 -128 9 -122 0 3 -5 -2 -7 -11 -3 -20 7 -32 -10 -28 -40 2 -17 -1 -21 -13 -17 -24 9 -30 48 -12 81 10 20 12 34 5 42 -6 8 -6 8 3 1 7 -5 28 -10 48 -10 l35 0 -24 19 c-13 10 -21 23 -17 30 9 14 61 14 89 -1z m2427 -2 c0 -7 -10 -21 -22 -29 -23 -16 -23 -16 14 -16 57 -1 88 -59 54 -103 -17 -23 -26 -23 -26 1 0 48 -109 68 -187 36 -42 -18 -46 -18 -38 -5 3 6 0 10 -7 10 -7 0 4 11 25 24 21 13 38 26 38 30 -3 19 2 26 32 45 38 24 117 29 117 7z m-1736 -49 c8 -12 7 -20 -2 -29 -16 -16 -47 13 -38 37 7 19 25 16 40 -8z m994 -1 c5 -24 -10 -38 -31 -30 -20 7 -22 25 -5 42 16 16 32 10 36 -12z m821 6 c7 -13 6 -19 -2 -19 -7 0 -13 9 -13 19 0 10 1 18 3 18 1 0 7 -8 12 -18z m-563 -50 c-18 -18 -46 -4 -46 24 0 23 0 23 30 6 24 -14 27 -19 16 -30z m-1509 16 c-4 -14 0 -30 11 -43 17 -20 17 -20 -4 -2 -11 9 -25 17 -30 17 -6 0 -15 5 -22 12 -10 10 -7 15 10 25 33 18 41 16 35 -9z m139 -5 c3 -16 7 -32 9 -38 1 -5 -4 -23 -12 -38 -17 -35 -12 -43 16 -26 29 19 37 4 18 -36 -21 -44 -21 -80 -2 -135 15 -43 15 -43 -5 -25 -28 25 -70 114 -71 149 0 17 -5 40 -10 51 -11 23 -5 -87 6 -120 5 -15 4 -16 -3 -6 -8 11 -10 8 -9 -12 2 -18 5 -22 14 -16 12 11 23 -8 16 -28 -5 -12 -23 0 -76 49 -32 31 -33 65 -2 59 19 -3 19 -2 4 15 -23 26 -30 56 -19 74 8 12 10 12 16 -3 9 -25 27 -21 21 5 -7 27 7 56 41 85 35 29 40 29 48 -4z m1234 7 c31 -22 55 -72 46 -95 -7 -20 4 -19 20 3 12 16 13 16 19 0 4 -10 0 -32 -9 -49 -20 -39 -20 -40 -1 -33 9 4 15 0 15 -9 0 -29 -12 -46 -58 -84 -34 -28 -44 -32 -39 -18 7 20 7 20 -8 1 -8 -11 -15 -16 -15 -10 1 12 26 45 31 40 5 -5 7 12 13 109 4 67 3 62 -10 -32 -3 -24 -11 -48 -17 -55 -7 -7 -19 -26 -27 -41 -8 -16 -22 -33 -32 -38 -16 -9 -16 -7 -3 32 19 54 19 92 -1 131 -20 39 -5 60 28 39 19 -12 20 -11 13 6 -13 30 -18 71 -11 98 8 30 10 30 46 5z m-3125 -49 c-34 -46 -79 -80 -91 -68 -8 8 62 104 84 116 37 21 40 -1 7 -48z m4630 49 c-3 -5 -11 -10 -16 -10 -6 0 -7 5 -4 10 3 6 11 10 16 10 6 0 7 -4 4 -10z m348 -4 c3 3 18 -11 34 -32 15 -20 36 -45 45 -55 23 -25 -1 -33 -34 -11 -52 35 -113 126 -68 102 9 -5 20 -7 23 -4z m-4676 -77 l6 -29 626 -2 626 -3 -630 -5 c-624 -5 -630 -5 -636 15 -3 11 -16 40 -28 65 l-22 45 26 -29 c14 -15 29 -41 32 -57z m826 66 c-4 -14 -30 -14 -30 0 0 7 7 12 16 10 9 -1 15 -6 14 -10z m2737 4 c3 -1 12 -3 20 -3 8 -1 15 -10 15 -20 0 -11 6 -21 14 -24 9 -3 11 0 6 8 -5 8 -4 11 3 6 6 -4 8 -14 5 -24 -6 -14 -4 -15 8 -5 12 10 15 8 15 -7 0 -18 -2 -18 -23 -5 -18 12 -23 12 -23 3 0 -8 -5 -6 -11 5 -5 9 -15 17 -21 17 -7 0 -6 -5 2 -15 7 -8 9 -15 4 -16 -5 0 -19 -2 -32 -3 -13 -2 -25 1 -27 5 -3 4 6 6 20 4 16 -1 24 2 22 9 -2 6 -10 11 -18 11 -8 0 -15 5 -16 10 -1 6 5 9 12 7 10 -2 13 3 9 13 -4 9 -12 14 -19 12 -6 -3 -12 0 -12 7 0 10 29 14 47 5z m851 -15 c-11 -14 -25 -41 -31 -60 l-12 -34 -455 0 c-251 0 -454 3 -450 6 3 3 205 7 448 7 l442 2 11 32 c12 37 41 73 57 73 6 0 1 -12 -10 -26z m-2656 -9 c0 -30 -39 -27 -43 3 -3 20 0 23 20 20 15 -2 23 -10 23 -23z m899 16 c10 -16 -5 -41 -24 -41 -23 0 -32 13 -24 34 7 17 39 22 48 7z m536 5 c0 -3 -4 -8 -10 -11 -5 -3 -10 -1 -10 4 0 6 5 11 10 11 6 0 10 -2 10 -4z m-3404 -41 c-6 -21 -14 -31 -20 -25 -5 5 -2 19 8 34 22 35 25 33 12 -9z m4814 -16 c0 -24 -17 -12 -27 19 l-11 37 19 -24 c10 -13 19 -27 19 -32z m-3825 2 c0 -15 -5 -28 -11 -28 -7 0 -10 7 -6 16 5 14 2 13 -15 -1 -18 -16 -21 -16 -39 -2 -18 15 -18 15 2 5 21 -10 34 -6 34 11 0 5 -6 6 -12 3 -7 -4 -2 3 11 14 28 25 35 21 36 -18z m36 6 c-20 -20 -12 -31 9 -12 11 10 17 22 13 28 -4 6 -1 7 6 2 9 -5 7 -13 -10 -31 -32 -34 -43 -21 -30 34 1 2 6 0 12 -4 8 -4 8 -9 0 -17z m209 19 c0 -2 -8 -10 -17 -17 -16 -13 -17 -12 -4 4 13 16 21 21 21 13z m-43 -13 c-4 -3 -2 -12 4 -20 9 -9 8 -13 0 -13 -6 0 -11 5 -11 11 0 8 -5 7 -15 -1 -13 -10 -18 -11 -28 -1 -9 10 -9 11 4 6 9 -3 22 1 29 10 7 8 15 15 18 15 3 0 2 -3 -1 -7z m1619 -8 c10 -25 -3 -44 -25 -38 -23 6 -27 23 -9 41 16 16 27 15 34 -3z m1679 -13 c-3 -3 -12 -7 -19 -8 -12 -2 -13 4 -7 35 1 2 8 -2 16 -9 9 -7 13 -15 10 -18z m-4575 -1 c-13 -26 -13 -87 2 -114 10 -20 10 -21 -5 -9 -24 20 -30 66 -13 106 8 20 18 36 21 36 3 0 1 -9 -5 -19z m380 15 c0 -2 -8 -10 -17 -17 -16 -13 -17 -12 -4 4 13 16 21 21 21 13z m34 -17 c-3 -5 -10 -7 -15 -3 -5 3 -7 10 -3 15 3 5 10 7 15 3 5 -3 7 -10 3 -15z m1693 5 c3 -8 1 -20 -4 -25 -14 -14 -43 0 -43 22 0 24 38 26 47 3z m2538 7 c3 -5 2 -12 -3 -15 -5 -3 -9 1 -9 9 0 17 3 19 12 6z m-981 -9 c3 -5 -1 -9 -9 -9 -8 0 -12 4 -9 9 3 4 7 8 9 8 2 0 6 -4 9 -8z m-1496 -45 c2 -9 -4 -20 -12 -23 -21 -8 -46 13 -39 32 8 20 47 13 51 -9z m675 11 c7 -21 -4 -38 -23 -38 -23 0 -34 16 -26 35 7 18 43 20 49 3z m904 -2 c4 -3 -68 -5 -158 -5 -100 1 -152 4 -134 9 33 9 283 5 292 -4z m-2276 -23 c-19 -4 -21 -7 -10 -14 12 -7 -1029 -16 -1095 -9 -39 4 -66 -10 -65 -33 1 -17 2 -18 6 -4 6 21 32 22 40 1 9 -24 -21 -48 -51 -40 -53 13 -39 88 18 99 11 2 282 4 601 4 319 0 569 -2 556 -4z m748 -2 c8 -5 11 -16 7 -26 -5 -15 -9 -15 -23 -4 -12 10 -14 10 -9 2 4 -7 3 -13 -2 -13 -15 0 -22 26 -9 39 13 13 18 13 36 2z m565 -7 c8 -21 -1 -34 -24 -34 -25 0 -35 17 -20 35 16 20 36 19 44 -1z m1881 4 c26 -12 41 -47 32 -73 -14 -35 -87 -26 -87 12 0 19 30 29 40 12 5 -7 12 -10 16 -6 4 3 1 13 -6 22 -11 13 -84 15 -587 15 -432 0 -572 3 -567 12 5 7 1 9 -13 6 -12 -3 -27 -2 -34 3 -23 14 1175 11 1206 -3z m-4681 -68 c31 -29 78 -24 86 8 7 33 22 30 42 -8 19 -37 9 -64 -19 -53 -10 4 -14 2 -10 -4 5 -7 -3 -10 -21 -8 -49 6 -67 12 -64 24 1 6 -2 11 -8 11 -13 0 -40 54 -39 77 1 14 3 13 6 -3 2 -12 15 -31 27 -44z m2306 35 c15 -18 5 -35 -20 -35 -22 0 -34 15 -26 35 7 19 30 19 46 0z m428 -7 c-3 -22 -33 -34 -44 -17 -10 17 5 39 26 39 16 0 21 -5 18 -22z m2277 -54 c-23 -35 -71 -54 -109 -43 -36 11 -43 17 -51 49 -4 16 0 32 10 45 9 11 13 13 9 5 -7 -13 -5 -13 9 -2 16 14 42 8 32 -7 -2 -5 2 -16 9 -26 18 -25 63 -12 84 25 l17 30 3 -26 c2 -14 -4 -37 -13 -50z m-2635 41 c10 -12 10 -19 1 -28 -9 -9 -14 -9 -21 3 -5 8 -10 11 -10 6 0 -6 -5 -5 -11 1 -13 13 -4 33 15 33 8 0 19 -7 26 -15z m288 -8 c4 -20 -25 -34 -40 -19 -15 15 -1 44 19 40 10 -2 19 -11 21 -21z m-608 -19 c11 -18 20 -45 20 -60 0 -33 15 -37 23 -7 7 25 27 16 27 -12 0 -11 7 -33 15 -48 8 -16 12 -31 9 -34 -3 -3 0 -8 7 -13 8 -4 10 -3 5 4 -9 15 -5 15 34 -2 31 -13 31 -13 9 -19 -30 -8 -72 13 -75 36 -3 22 -14 36 -14 18 0 -7 -5 -9 -12 -5 -7 4 -8 3 -4 -4 4 -7 1 -12 -6 -12 -23 -1 36 -39 85 -56 38 -12 51 -13 62 -4 11 9 15 9 15 1 0 -16 60 15 82 43 34 41 13 116 -33 116 -27 0 -33 -18 -7 -22 45 -6 29 -68 -18 -68 -52 0 -72 65 -32 107 30 32 90 32 123 -1 48 -48 45 -123 -7 -182 -27 -31 -36 -35 -62 -30 -21 4 -26 3 -17 -3 11 -7 4 -12 -25 -20 -86 -22 -94 -23 -94 -11 0 6 4 9 9 5 5 -3 12 -1 15 4 3 5 0 11 -7 14 -15 5 -39 -18 -29 -28 4 -4 -2 -5 -13 -2 -11 3 -33 8 -49 12 -25 5 -26 8 -12 18 11 8 13 17 6 27 -5 8 -12 11 -17 7 -4 -5 -1 -13 7 -18 12 -9 10 -9 -5 -3 -11 4 -30 8 -42 8 -11 1 -19 5 -16 9 3 5 -1 8 -8 6 -29 -3 -41 2 -66 29 -15 15 -23 20 -18 12 4 -8 -6 -2 -23 13 -16 16 -34 30 -39 30 -4 1 -7 5 -6 8 2 5 -97 5 -107 -1 -3 -1 -9 -2 -14 -1 -12 2 -46 -30 -46 -43 0 -6 7 0 16 12 21 30 38 28 18 -3 -8 -13 -13 -29 -9 -35 3 -5 4 -10 1 -10 -2 0 -11 -3 -19 -6 -36 -13 -63 59 -33 89 11 10 12 17 4 25 -8 8 -7 16 2 27 14 17 55 17 94 0 15 -7 17 -5 11 13 -15 49 51 14 94 -49 19 -27 36 -49 38 -49 2 0 1 11 -3 25 -9 37 19 32 48 -7 42 -61 93 -92 109 -67 6 10 -5 26 -36 55 -49 44 -63 91 -25 81 16 -4 18 -2 10 13 -13 24 -13 56 0 81 15 27 27 24 50 -13z m390 17 c15 -18 5 -35 -21 -35 -24 0 -37 29 -18 41 19 12 25 11 39 -6z m148 2 c14 -16 1 -37 -20 -33 -24 3 -31 13 -25 31 8 18 31 20 45 2z m397 -21 c6 -18 5 -36 -2 -56 -10 -28 -10 -29 8 -19 15 7 21 6 25 -6 8 -19 -17 -58 -56 -87 -31 -22 -38 -42 -20 -53 16 -10 68 26 97 67 27 40 59 53 48 19 -3 -12 0 -21 9 -24 9 -4 13 -1 10 7 -7 18 74 106 98 106 16 0 19 -5 15 -21 -4 -16 -2 -19 11 -13 38 16 79 16 96 -2 17 -16 17 -19 2 -30 -14 -10 -15 -13 -1 -24 22 -18 19 -67 -4 -80 -26 -13 -52 -14 -31 0 13 8 12 10 -4 10 -11 0 -16 3 -13 7 4 3 0 17 -9 31 -15 23 -15 24 8 18 22 -6 22 -5 -2 6 -14 7 -28 17 -32 23 -5 6 -11 5 -17 -4 -6 -9 -10 -10 -16 -2 -5 9 -10 9 -21 0 -8 -6 -14 -8 -14 -4 0 4 -16 -5 -35 -20 -20 -15 -42 -24 -50 -21 -7 2 -19 -3 -27 -12 -12 -16 -11 -16 7 -2 19 14 19 14 6 -2 -7 -10 -17 -16 -21 -13 -4 3 -13 -2 -20 -10 -7 -8 -16 -13 -20 -10 -13 8 -40 -6 -33 -18 3 -5 1 -7 -4 -4 -6 4 -26 1 -43 -7 -22 -9 -28 -15 -19 -20 8 -3 4 -3 -8 0 -14 3 -23 1 -23 -6 0 -7 -9 -2 -20 11 -10 13 -19 18 -20 12 0 -7 5 -13 11 -13 5 0 7 -4 4 -10 -9 -15 -86 -12 -118 5 -15 8 -25 10 -22 5 3 -6 -1 -7 -10 -4 -9 4 -13 9 -11 12 3 3 1 11 -5 19 -9 10 -15 10 -25 2 -20 -16 -64 31 -57 62 4 20 3 21 -6 9 -9 -12 -10 -9 -5 15 4 23 3 26 -5 15 -9 -12 -11 -10 -11 13 0 15 4 27 10 27 5 0 7 6 4 13 -3 8 7 26 22 40 52 53 144 26 144 -41 0 -38 -31 -66 -64 -58 -43 11 -47 66 -5 66 11 0 17 5 14 10 -11 17 -43 11 -59 -12 -23 -32 -20 -62 9 -96 35 -42 71 -54 125 -42 39 8 40 9 9 7 -23 -2 -42 4 -55 16 -14 14 -15 18 -4 17 58 -8 130 43 130 93 0 35 15 42 34 15 l16 -22 0 28 c0 34 37 99 54 93 6 -2 15 -16 21 -31z m-467 1 c2 -9 -4 -20 -13 -23 -20 -8 -50 19 -40 36 10 17 49 8 53 -13z m-1235 -44 c30 -3 57 2 79 13 31 16 32 16 19 0 -24 -29 -71 -48 -100 -41 -28 7 -71 42 -71 59 0 5 6 1 14 -9 9 -12 29 -20 59 -22z m1302 -3 c-15 -17 -31 -20 -95 -20 -54 0 -81 4 -89 14 -10 11 4 14 85 14 53 1 99 4 102 7 15 15 13 2 -3 -15z m-94 -80 c15 0 31 5 34 10 3 6 12 10 18 10 7 0 0 -12 -16 -25 -27 -24 -46 -24 -74 -2 -7 5 -13 14 -13 20 0 7 4 7 12 -1 7 -7 24 -12 39 -12z m-374 -35 c0 -8 -4 -12 -9 -9 -5 3 -6 10 -3 15 9 13 12 11 12 -6z m594 -32 c13 -16 12 -17 -3 -4 -17 13 -22 21 -14 21 2 0 10 -8 17 -17z m-293 -24 c-17 -49 -91 -121 -119 -117 -15 2 -25 11 -26 23 -2 11 0 14 3 8 7 -16 50 -17 60 -2 4 8 -1 9 -17 4 -17 -5 -12 2 16 21 22 16 43 28 47 27 3 -1 13 13 22 32 21 44 29 45 14 4z m66 9 c-6 -10 -4 -10 8 0 14 11 17 7 23 -35 3 -27 18 -73 32 -105 26 -60 27 -86 3 -98 -8 -4 -24 -12 -35 -17 -16 -8 -29 -6 -54 6 -55 26 -59 42 -29 105 15 29 30 71 33 92 8 50 13 64 20 64 4 0 3 -6 -1 -12z m-24 -12 c0 -36 -42 -145 -64 -165 -26 -24 -59 -22 -70 4 -8 21 1 37 32 60 27 19 27 19 12 0 -14 -18 -14 -19 2 -7 10 8 17 17 16 20 -5 15 24 52 40 53 10 0 12 3 5 6 -10 3 -10 9 0 24 14 22 27 25 27 5z m90 -4 c0 -5 16 -27 35 -49 38 -44 46 -64 18 -42 -15 11 -16 11 -5 -1 6 -8 12 -22 12 -33 0 -11 4 -15 12 -11 7 4 8 3 4 -4 -9 -15 -41 4 -55 33 -5 11 -10 15 -10 9 -1 -18 39 -64 55 -64 20 0 29 27 14 45 -10 12 -10 15 1 15 7 0 2 11 -13 28 -29 31 -52 71 -45 79 3 2 8 -5 12 -18 4 -12 10 -18 14 -13 3 5 21 -6 40 -24 18 -17 25 -29 15 -25 -12 4 -15 3 -10 -5 10 -16 53 -15 59 1 2 6 8 9 12 5 17 -16 -18 -40 -48 -34 -25 5 -28 4 -17 -9 14 -17 5 -51 -16 -59 -27 -10 -55 14 -80 69 -23 49 -30 115 -12 115 4 0 8 -4 8 -8z"/>
<path d="M2784 4074 c-19 -15 -19 -15 1 -6 11 5 27 12 35 15 13 5 13 6 -1 6 -8 1 -24 -6 -35 -15z"/>
<path d="M2769 4013 c-13 -16 -12 -17 4 -4 16 13 21 21 13 21 -2 0 -10 -8 -17 -17z"/>
<path d="M2535 3954 c-19 -15 -22 -21 -9 -15 18 9 52 41 43 41 -2 0 -17 -12 -34 -26z"/>
<path d="M3076 3916 c5 -13 4 -17 -3 -13 -6 4 -16 0 -22 -7 -19 -23 4 -28 24 -6 15 16 16 23 6 33 -10 9 -11 8 -5 -7z"/>
<path d="M3400 4090 c-8 -5 -10 -10 -5 -10 6 0 17 5 25 10 8 5 11 10 5 10 -5 0 -17 -5 -25 -10z"/>
<path d="M3344 4028 l-19 -23 23 19 c21 18 27 26 19 26 -2 0 -12 -10 -23 -22z"/>
<path d="M3307 4007 c-3 -8 1 -14 8 -14 7 0 11 6 8 14 -3 7 -6 13 -8 13 -2 0 -5 -6 -8 -13z"/>
<path d="M3600 3995 c13 -14 26 -25 28 -25 3 0 -5 11 -18 25 -13 14 -26 25 -28 25 -3 0 5 -11 18 -25z"/>
<path d="M3905 3950 c3 -5 8 -10 11 -10 2 0 4 5 4 10 0 6 -5 10 -11 10 -5 0 -7 -4 -4 -10z"/>
<path d="M2552 3880 c-18 -29 -15 -38 4 -12 9 13 14 25 12 27 -2 2 -9 -5 -16 -15z"/>
<path d="M2606 3865 c-3 -9 -6 -22 -5 -28 0 -7 5 -1 10 12 5 13 8 26 5 28 -2 2 -6 -3 -10 -12z"/>
<path d="M2543 3750 c0 -30 2 -43 4 -27 2 15 2 39 0 55 -2 15 -4 2 -4 -28z"/>
<path d="M806 3848 c3 -5 10 -6 15 -3 13 9 11 12 -6 12 -8 0 -12 -4 -9 -9z"/>
<path d="M3114 3760 c-208 -29 -397 -198 -457 -410 -99 -348 171 -711 533 -714 164 -1 284 48 400 164 83 82 131 161 155 256 53 212 -8 413 -172 565 -119 110 -291 162 -459 139z m209 -25 c148 -30 297 -145 363 -280 35 -73 64 -170 64 -217 0 -31 -1 -30 -68 30 -14 12 -36 22 -49 22 -20 0 -23 4 -18 20 5 17 1 21 -27 27 -18 4 -37 6 -41 5 -5 -1 -6 1 -4 5 3 5 31 6 62 5 49 -3 57 -7 65 -28 10 -25 34 -32 45 -14 8 13 -14 42 -26 34 -21 -12 -28 8 -14 36 21 41 19 47 -20 60 -30 10 -34 14 -24 26 9 11 9 18 1 26 -16 16 -34 -1 -28 -26 8 -33 -59 -96 -110 -102 -45 -6 -54 -12 -34 -24 12 -7 12 -12 2 -22 -9 -9 -12 -9 -12 1 0 7 -5 9 -11 5 -7 -4 -9 0 -5 14 4 11 2 23 -5 27 -8 6 -7 10 2 16 10 6 11 9 2 9 -7 0 -13 5 -13 11 0 5 5 7 12 3 7 -5 8 -3 3 6 -5 8 -2 18 6 24 8 7 25 25 39 41 l25 29 -40 -29 c-22 -16 -46 -36 -53 -45 -12 -13 -13 -13 -9 2 7 19 -13 19 -37 -1 -11 -9 -16 -10 -16 -2 0 6 -3 10 -7 10 -21 -3 -33 2 -33 15 0 21 23 25 37 7 11 -14 12 -14 13 4 0 23 26 65 41 65 5 0 9 -8 9 -17 0 -12 7 -7 20 15 20 33 35 41 42 20 3 -8 11 -7 28 5 14 9 35 17 48 17 22 0 24 -3 18 -32 -3 -17 -13 -39 -22 -49 -12 -13 -13 -18 -2 -22 9 -4 5 -13 -14 -30 -22 -21 -24 -26 -11 -31 13 -5 13 -9 2 -23 -10 -12 -10 -15 -1 -9 14 9 45 71 49 101 1 11 6 39 11 62 5 23 7 44 5 46 -2 2 -23 0 -46 -5 -23 -5 -51 -9 -62 -9 -11 0 -30 -7 -43 -15 -13 -9 -26 -13 -29 -10 -4 3 -11 2 -17 -4 -8 -6 -12 -3 -12 10 0 11 2 17 4 15 3 -2 19 7 36 20 20 15 40 22 53 19 24 -7 40 13 25 28 -8 8 -16 7 -28 -3 -16 -12 -17 -12 -11 4 4 10 3 16 -2 13 -5 -3 -12 5 -15 19 -7 29 -27 32 -61 9 -27 -18 -24 -20 -40 32 -6 20 -29 13 -33 -10 -2 -11 4 -19 17 -23 13 -3 25 -18 30 -37 7 -24 9 -26 10 -9 1 25 44 59 61 48 20 -12 11 -61 -16 -86 l-27 -24 6 25 c5 23 5 23 -7 7 -11 -14 -15 -15 -20 -5 -3 7 -4 4 -1 -8 3 -11 -1 -28 -8 -39 -13 -16 -14 -15 -9 14 5 34 -13 65 -34 57 -8 -3 -15 7 -20 27 -6 30 -74 113 -74 91 0 -6 7 -17 15 -24 8 -7 15 -23 15 -36 0 -17 4 -22 15 -18 19 8 21 -36 4 -69 -12 -21 -12 -21 14 -4 15 9 31 17 37 17 19 0 11 -63 -12 -88 -18 -20 -19 -24 -5 -19 22 8 23 -16 0 -34 -14 -12 -16 -12 -8 0 6 11 1 13 -22 9 -27 -4 -29 -2 -28 24 1 15 -2 25 -7 22 -5 -4 -7 -13 -4 -21 3 -8 1 -11 -4 -8 -6 4 -8 21 -4 41 4 20 2 34 -4 34 -5 0 -7 12 -4 28 3 21 2 24 -8 15 -7 -6 -12 -34 -12 -62 0 -30 -4 -48 -10 -45 -5 3 -12 -4 -15 -16 -4 -16 -8 -18 -14 -8 -7 10 -9 9 -9 -4 0 -22 -19 -19 -43 7 -18 19 -18 20 1 23 21 3 21 3 1 23 -20 20 -27 79 -9 79 6 0 22 -8 37 -17 26 -17 26 -17 14 4 -17 33 -15 77 4 69 10 -4 15 1 15 15 0 11 7 32 16 47 11 17 2 11 -25 -17 -25 -27 -41 -54 -41 -69 0 -17 -4 -22 -14 -19 -21 8 -39 -19 -34 -52 2 -17 1 -28 -4 -25 -4 3 -8 17 -8 32 0 25 -1 25 -15 6 -12 -15 -14 -15 -9 -2 3 9 1 25 -5 35 -9 15 -10 13 -5 -11 6 -23 4 -27 -7 -20 -9 5 -7 -3 5 -21 13 -20 14 -26 4 -18 -8 7 -18 10 -21 7 -4 -4 -18 1 -32 10 -15 10 -32 15 -38 13 -7 -2 -19 -1 -28 4 -24 12 -65 18 -77 10 -8 -4 -8 -18 -1 -46 5 -22 11 -50 13 -63 2 -13 8 -28 15 -35 17 -17 13 -27 -8 -24 -28 4 -53 28 -47 44 3 8 2 11 -3 8 -5 -3 -12 -1 -16 5 -3 5 1 10 9 10 9 0 16 5 16 10 0 15 -27 12 -33 -4 -3 -7 -1 -18 5 -24 7 -7 0 -12 -22 -17 -40 -9 -48 -29 -26 -66 17 -29 16 -31 -14 -33 -18 -1 -20 -38 -3 -43 7 -3 16 4 20 14 10 26 23 33 68 33 39 0 39 -1 15 -13 -15 -8 -25 -21 -24 -34 0 -14 -5 -19 -16 -16 -9 2 -40 -14 -70 -38 l-53 -42 6 49 c13 104 44 185 101 261 49 67 113 126 127 117 5 -3 8 0 7 7 -4 16 131 86 187 97 64 13 174 12 248 -3z m7 -39 c0 -3 -4 -8 -10 -11 -5 -3 -10 -1 -10 4 0 6 5 11 10 11 6 0 10 -2 10 -4z m155 -76 c3 -5 1 -10 -4 -10 -6 0 -11 5 -11 10 0 6 2 10 4 10 3 0 8 -4 11 -10z m-589 -64 c10 -8 29 -12 41 -9 17 4 25 -1 34 -21 11 -23 13 -24 24 -9 11 14 14 14 28 -8 10 -13 17 -29 17 -36 0 -16 12 -17 27 -2 8 8 14 5 22 -10 10 -18 9 -21 -6 -22 -41 -3 -62 -7 -77 -12 -9 -4 -16 -2 -16 4 0 6 -5 7 -12 3 -8 -5 -9 -2 -5 10 4 9 3 15 -2 11 -6 -3 -14 3 -20 12 -6 10 -11 14 -11 9 0 -5 -12 1 -27 15 -15 13 -6 -2 21 -33 26 -32 43 -58 37 -58 -6 0 -11 -20 -11 -45 0 -33 -4 -45 -15 -45 -17 0 -20 26 -4 36 6 3 -7 14 -30 25 -47 21 -50 26 -18 39 14 6 16 9 6 9 -23 1 -58 43 -41 48 10 4 10 9 -2 22 -9 10 -19 32 -22 49 -6 29 -4 32 18 32 13 0 33 -6 44 -14z m729 -76 c3 -5 1 -10 -4 -10 -6 0 -11 5 -11 10 0 6 2 10 4 10 3 0 8 -4 11 -10z m-385 -49 c44 -7 44 -8 16 -16 -18 -5 -47 -4 -74 4 -24 6 -48 8 -54 5 -7 -4 -8 -2 -4 4 8 13 49 14 116 3z m-430 -23 c24 -26 20 -34 -9 -18 -12 6 -21 8 -21 6 0 -3 12 -12 28 -20 l27 -15 -42 -1 c-34 0 -46 5 -59 25 -8 13 -13 29 -9 35 11 18 63 11 85 -12z m859 13 c12 -8 12 -13 -3 -35 -14 -21 -24 -26 -59 -25 l-42 1 30 14 30 14 -35 -5 -35 -6 28 25 c29 27 61 33 86 17z m-333 -33 c9 -18 28 -42 41 -53 22 -19 24 -25 18 -68 -8 -50 -15 -56 -35 -32 -10 12 -10 15 1 15 11 0 11 2 2 8 -7 4 -11 18 -9 29 3 13 -3 27 -12 35 -16 12 -16 11 -2 -7 14 -19 14 -19 -3 -6 -10 8 -15 21 -13 28 4 9 0 13 -12 12 -27 -4 -63 11 -56 23 5 7 -1 9 -16 5 -12 -3 -33 -2 -46 3 -15 6 -26 6 -30 -1 -3 -6 -12 -8 -20 -5 -9 3 -11 -1 -8 -12 4 -13 2 -13 -11 3 -9 11 -19 19 -23 18 -4 -2 -7 3 -7 10 0 16 61 21 94 7 21 -8 36 -8 67 3 57 21 62 20 80 -15z m-472 -4 c7 -19 2 -18 -19 6 -16 17 -16 20 -3 15 9 -4 19 -13 22 -21z m222 -9 c19 -14 19 -15 -4 -33 -13 -10 -24 -25 -26 -32 -6 -29 -18 -50 -26 -45 -5 3 -11 1 -15 -5 -3 -5 -12 -10 -18 -10 -8 0 -8 3 1 9 8 4 14 12 14 17 0 5 4 8 10 6 5 -1 7 2 4 7 -9 13 12 62 32 77 9 8 12 14 6 14 -17 0 -60 -60 -80 -112 -3 -10 -10 -18 -15 -18 -15 0 21 84 48 112 31 32 41 34 69 13z m158 -31 c9 -3 16 -12 16 -19 0 -9 -13 -11 -45 -7 -35 3 -50 0 -65 -13 -19 -17 -20 -17 -20 3 0 12 8 26 18 31 19 12 72 14 96 5z m466 -18 c0 -3 -4 -8 -10 -11 -5 -3 -10 -1 -10 4 0 6 5 11 10 11 6 0 10 -2 10 -4z m-834 -21 c5 -11 10 -12 24 -3 14 9 22 9 35 -2 16 -13 16 -15 0 -26 -9 -7 -14 -17 -10 -23 10 -16 -26 -1 -55 23 l-25 21 23 -26 c12 -14 20 -28 16 -31 -3 -3 2 -5 12 -4 9 0 19 -5 22 -13 4 -11 -3 -13 -29 -8 -19 3 -43 8 -54 12 -16 6 -17 5 -5 -4 13 -9 13 -11 -2 -11 -10 0 -18 -4 -18 -10 0 -10 11 -13 70 -14 20 -1 35 -6 36 -13 1 -7 2 -24 3 -38 1 -16 7 -25 19 -26 13 0 12 -3 -6 -12 -18 -8 -25 -8 -31 2 -6 9 -11 8 -21 -4 -13 -15 -80 -22 -80 -7 0 5 7 17 15 28 20 27 19 37 -4 24 -31 -16 -74 -13 -67 5 4 11 -1 15 -18 15 -13 0 -29 7 -36 15 -13 16 -30 20 -30 8 1 -12 94 -73 112 -73 10 0 14 -8 13 -25 -2 -13 0 -24 3 -24 47 7 57 -23 15 -40 l-28 -11 29 5 c24 5 28 3 22 -12 -6 -15 -4 -15 16 3 13 12 30 25 38 29 13 7 13 6 0 -11 -25 -32 -51 -83 -49 -96 2 -7 -3 -31 -9 -53 -7 -22 -12 -43 -12 -46 0 -14 30 -17 67 -7 21 7 44 10 51 9 8 -1 23 5 33 15 10 9 19 14 19 11 0 -4 11 -2 25 3 23 9 25 8 15 -9 -16 -31 -64 -61 -87 -55 -24 7 -40 -13 -25 -28 8 -8 15 -8 26 1 12 10 15 7 21 -19 9 -39 25 -46 64 -25 31 15 33 14 35 -15 1 -21 40 -19 44 2 2 11 -5 18 -20 20 -20 3 -24 11 -29 53 l-6 50 -1 -42 c-2 -33 -7 -46 -27 -59 -13 -8 -29 -13 -35 -9 -19 12 -11 61 15 85 28 26 30 24 15 -14 -16 -43 -2 -29 18 18 11 24 26 47 33 52 12 6 12 5 1 -8 -9 -11 -10 -23 -3 -41 5 -14 7 -27 4 -30 -3 -3 9 -4 26 -2 20 3 29 0 25 -6 -10 -17 5 -59 21 -59 8 0 15 -6 15 -13 0 -8 9 -22 20 -32 11 -10 20 -13 20 -8 0 6 -7 16 -15 23 -8 7 -15 23 -15 36 0 17 -4 22 -15 18 -19 -8 -21 36 -4 69 12 21 12 21 -14 4 -15 -9 -31 -17 -37 -17 -16 0 -12 62 7 82 11 12 12 18 3 18 -8 0 -10 8 -7 21 4 16 2 19 -10 15 -9 -4 -21 -2 -28 4 -10 8 -14 4 -19 -15 -4 -14 -4 -31 0 -37 4 -6 3 -8 -4 -4 -6 3 -14 1 -18 -5 -5 -9 -10 -7 -19 4 -11 15 -13 14 -24 -9 -9 -20 -17 -25 -34 -21 -12 3 -31 -1 -41 -9 -11 -8 -30 -14 -43 -14 -30 0 -31 37 -2 74 11 14 16 26 10 26 -24 0 -9 32 22 45 17 8 24 14 15 15 -34 0 -28 21 11 38 29 13 37 22 30 29 -13 13 -2 36 12 28 5 -4 9 -15 9 -26 0 -10 5 -19 10 -19 7 0 6 -8 -2 -22 -12 -23 -14 -29 -17 -49 0 -5 -6 -7 -13 -3 -7 4 -8 3 -4 -4 4 -7 -5 -23 -19 -38 -38 -38 -26 -39 16 -1 65 59 70 62 63 41 -5 -18 -5 -18 10 0 16 20 16 20 17 0 0 -18 1 -18 9 1 5 11 9 14 9 8 1 -7 8 -13 16 -13 8 0 15 -5 15 -11 0 -5 5 -7 10 -4 6 3 16 3 23 -2 12 -8 17 -9 50 -11 12 -1 15 -6 11 -14 -5 -8 -1 -7 10 2 17 13 18 11 16 -30 -5 -83 0 -141 10 -135 5 3 10 16 9 28 -1 101 3 147 11 142 6 -3 10 -1 10 6 0 7 3 9 6 6 4 -4 1 -13 -6 -22 -7 -9 -10 -18 -6 -22 3 -3 6 -1 6 6 0 7 12 -1 26 -16 l26 -28 -20 28 c-20 27 -20 57 0 57 5 0 7 -4 3 -9 -3 -5 -1 -13 5 -16 6 -4 9 -1 8 6 -2 6 3 14 9 16 17 6 29 -27 14 -36 -9 -6 -8 -11 4 -21 14 -11 22 -80 10 -80 -4 0 -20 7 -36 16 -29 15 -30 15 -20 -5 17 -31 14 -74 -4 -67 -11 4 -15 -1 -15 -17 0 -12 -12 -35 -26 -51 -26 -27 -30 -28 -87 -21 -70 7 -158 41 -229 86 -115 74 -229 246 -232 350 0 26 -4 45 -8 42 -5 -2 -8 9 -8 25 0 31 45 82 73 82 9 0 17 7 17 15 0 18 42 20 73 4 21 -12 21 -12 4 14 -9 15 -17 31 -17 37 0 16 70 12 76 -5z m224 -14 c-6 -12 -7 -20 -3 -19 8 2 103 -84 103 -93 0 -4 -21 4 -47 16 -62 30 -91 83 -61 113 17 17 22 7 8 -17z m214 -2 c11 -33 0 -72 -14 -49 -8 12 -10 10 -10 -8 0 -14 -11 -29 -32 -42 -48 -29 -56 -24 -21 13 36 37 57 83 43 92 -17 10 -11 27 7 23 10 -2 22 -15 27 -29z m286 23 c0 -5 -7 -17 -15 -28 -20 -27 -19 -37 4 -24 31 16 74 13 67 -5 -4 -11 1 -15 18 -15 12 0 31 -9 41 -20 17 -19 17 -21 0 -40 -10 -11 -29 -20 -41 -20 -17 0 -22 -4 -18 -15 7 -18 -36 -21 -67 -5 -23 13 -24 3 -4 -24 8 -11 15 -23 15 -28 0 -15 -63 -8 -82 9 -12 11 -18 12 -18 3 0 -7 -8 -10 -20 -7 -17 4 -19 1 -14 -19 5 -18 2 -24 -10 -24 -23 0 -20 30 7 58 12 14 17 22 10 19 -6 -4 -10 -1 -9 8 4 27 16 29 44 8 21 -15 29 -17 29 -8 0 8 -5 13 -11 12 -6 -1 -10 3 -9 10 2 8 -4 10 -14 6 -11 -4 -14 -3 -9 5 5 8 1 10 -11 6 -16 -5 -16 -4 1 6 10 7 33 10 52 7 34 -6 40 -2 26 20 -5 8 -26 11 -57 8 -43 -3 -48 -2 -32 9 16 12 16 14 1 20 -14 5 -14 9 -3 23 10 12 10 14 2 9 -8 -4 -13 -1 -13 9 0 20 30 32 39 16 6 -9 11 -8 21 4 13 15 80 22 80 7z m-362 -18 c23 -16 29 -39 12 -49 -6 -4 -17 -2 -24 4 -7 6 -16 8 -19 4 -4 -3 -7 -1 -7 5 0 16 23 15 38 0 9 -9 12 -9 12 0 0 21 -42 32 -65 17 -11 -7 -19 -19 -17 -25 1 -6 -2 -9 -8 -5 -17 10 -11 33 12 49 12 9 27 16 33 16 6 0 21 -7 33 -16z m192 -41 c0 -18 -4 -33 -10 -33 -5 0 -10 21 -10 48 0 34 3 43 10 32 5 -8 10 -30 10 -47z m-406 -38 c-15 -24 -15 -27 0 -44 9 -9 16 -25 16 -34 0 -9 5 -17 11 -17 5 0 -3 -11 -18 -24 -21 -19 -31 -22 -41 -13 -12 9 -11 12 1 17 13 4 13 7 1 18 -11 10 -14 10 -14 0 0 -9 -3 -9 -10 2 -28 43 2 120 46 120 24 0 24 -1 8 -25z m56 -14 c0 -22 3 -48 6 -58 3 -10 -2 -7 -10 7 -17 28 -21 90 -6 90 6 0 10 -18 10 -39z m247 22 c-4 -3 -3 -11 3 -17 5 -7 5 -17 -2 -26 -8 -12 -9 -12 -4 3 3 11 2 16 -4 12 -6 -3 -10 -12 -10 -20 0 -7 -12 -27 -26 -45 -22 -26 -33 -30 -66 -28 -53 3 -47 25 15 59 27 14 58 36 70 48 12 11 23 21 26 21 2 0 1 -3 -2 -7z m76 -27 c3 4 11 -5 18 -19 16 -36 3 -94 -28 -123 -32 -30 -44 -23 -16 9 27 28 45 95 33 116 -8 13 -9 11 -10 -10 0 -46 -20 -89 -41 -89 -15 0 -19 6 -17 30 1 19 7 29 14 26 8 -3 11 3 8 17 -6 34 5 60 20 48 7 -6 16 -8 19 -5z m-258 -12 c26 -10 35 -20 31 -30 -3 -9 -6 -23 -7 -32 0 -11 -2 -12 -6 -4 -2 6 -9 9 -14 6 -16 -9 -49 27 -49 53 0 27 -2 27 45 7z m596 -91 c-17 -89 -81 -209 -148 -275 -97 -95 -205 -150 -327 -165 l-50 -6 18 29 c11 16 27 37 37 47 11 10 19 29 19 43 0 19 4 25 15 20 8 -3 21 4 30 17 15 21 16 20 13 -23 -3 -38 -7 -46 -25 -48 -30 -4 -32 -42 -3 -42 13 0 20 7 20 18 0 29 10 32 42 16 38 -20 54 -13 63 26 6 26 9 29 21 19 11 -9 18 -9 26 -1 15 15 -1 35 -25 28 -12 -3 -26 -1 -32 4 -7 6 -9 -3 -7 -30 5 -45 -10 -58 -43 -36 -20 13 -25 24 -24 59 l1 42 13 -30 14 -30 -2 36 c-2 20 -8 44 -16 52 -9 12 -2 11 31 -5 53 -26 169 -51 181 -39 5 5 3 28 -4 52 -7 24 -12 50 -10 56 1 7 -6 24 -15 38 -9 14 -14 28 -10 32 3 3 0 13 -6 22 -8 10 -4 9 9 -3 13 -10 20 -24 16 -30 -3 -6 -2 -8 2 -3 15 13 45 -24 39 -48 -6 -26 12 -43 28 -27 8 8 8 15 0 25 -9 10 -4 16 23 26 38 14 43 29 19 65 -11 17 -12 26 -4 31 6 4 14 4 17 1 3 -3 12 -1 20 5 10 9 10 15 2 25 -12 15 -39 8 -39 -11 0 -17 -23 -25 -73 -24 -40 1 -41 1 -14 11 16 6 27 17 27 29 0 12 7 19 19 19 10 0 41 18 67 39 57 46 62 40 45 -56z m-658 -7 c10 -8 18 -18 18 -23 -1 -4 4 -9 9 -9 6 -1 14 -2 20 -3 15 -2 8 -51 -7 -51 -7 0 -13 4 -13 9 0 4 -18 20 -41 35 -33 22 -38 30 -28 42 14 17 19 17 42 0z m255 -37 c-2 -16 -12 -25 -33 -31 -127 -31 -127 -31 -142 -15 -9 9 -13 23 -8 36 5 17 10 19 25 11 22 -12 70 -9 70 4 0 5 3 6 7 3 3 -4 15 1 26 10 15 13 18 14 12 3 -5 -11 -2 -10 11 2 22 21 37 10 32 -23z m362 21 c0 -5 -2 -10 -4 -10 -3 0 -8 5 -11 10 -3 6 -1 10 4 10 6 0 11 -4 11 -10z m-602 -65 c4 -9 21 -20 38 -24 l29 -9 -31 -1 c-36 -1 -97 36 -102 63 -4 16 -2 16 27 2 16 -9 34 -23 39 -31z m413 16 l24 -20 -25 -10 c-16 -6 -19 -10 -8 -10 23 -1 50 -31 44 -48 -3 -8 1 -24 9 -36 8 -12 15 -32 15 -45 0 -22 -3 -24 -32 -18 -17 3 -40 14 -50 23 -11 10 -18 11 -18 5 0 -22 -25 -12 -42 16 -10 15 -18 21 -18 15 0 -27 -29 -11 -41 22 -10 26 -16 32 -25 24 -19 -15 -37 -1 -21 15 6 8 15 12 20 9 4 -2 13 -1 20 4 19 12 49 14 42 3 -4 -6 -3 -10 2 -9 22 4 34 -2 27 -13 -4 -7 -4 -10 1 -6 4 4 14 3 22 -4 27 -22 22 0 -7 30 -27 28 -28 32 -12 41 11 7 12 11 4 11 -7 0 -10 5 -7 10 10 16 51 11 76 -9z m156 -11 c14 -29 4 -40 -39 -40 -18 0 -33 9 -47 29 -25 35 -18 43 33 39 31 -2 43 -9 53 -28z m-682 -10 c-3 -5 -12 -10 -18 -10 -7 0 -6 4 3 10 19 12 23 12 15 0z m321 -16 c-22 -16 -96 -19 -96 -4 0 5 6 7 13 4 7 -2 30 2 52 10 45 15 59 11 31 -10z m32 -119 c-3 -3 -9 2 -12 12 -6 14 -5 15 5 6 7 -7 10 -15 7 -18z m-408 -85 c0 -5 -2 -10 -4 -10 -3 0 -8 5 -11 10 -3 6 -1 10 4 10 6 0 11 -4 11 -10z"/>
<path d="M3067 3714 c-4 -4 -7 -16 -7 -26 0 -20 25 -25 36 -7 8 13 -19 43 -29 33z"/>
<path d="M2963 3666 c-12 -25 -22 -35 -37 -33 -13 1 -21 -4 -21 -13 0 -10 11 -15 35 -16 34 -1 36 0 32 31 -2 18 1 36 7 40 17 10 59 -21 63 -47 3 -22 4 -22 9 4 5 22 1 29 -32 48 l-39 21 -17 -35z"/>
<path d="M3136 3519 c19 -26 34 -29 34 -7 0 6 -3 8 -7 5 -3 -4 -15 1 -27 10 -20 18 -20 18 0 -8z"/>
<path d="M3259 3523 c-13 -16 -12 -17 4 -4 16 13 21 21 13 21 -2 0 -10 -8 -17 -17z"/>
<path d="M2778 3193 c7 -3 16 -2 19 1 4 3 -2 6 -13 5 -11 0 -14 -3 -6 -6z"/>
<path d="M2873 3163 c-10 -10 -14 -15 -9 -10 21 16 28 6 10 -15 l-19 -22 27 20 c14 10 22 21 17 22 -5 2 -7 8 -3 13 9 15 -2 10 -23 -8z"/>
<path d="M2690 3085 c-11 -13 -8 -17 19 -26 31 -11 31 -11 14 -39 -21 -36 -12 -56 27 -65 25 -5 29 -10 20 -20 -14 -17 -5 -35 17 -35 11 0 14 6 9 26 -4 15 -2 32 5 40 10 12 8 13 -12 6 -36 -12 -59 -4 -59 22 0 27 17 46 45 47 13 1 9 4 -10 8 -21 4 -31 13 -33 29 -4 25 -24 29 -42 7z"/>
<path d="M3134 2878 l-19 -23 23 19 c21 18 27 26 19 26 -2 0 -12 -10 -23 -22z"/>
<path d="M3521 3266 c-13 -14 -18 -26 -12 -30 5 -4 12 -2 16 4 3 5 3 10 -1 10 -4 0 1 9 11 20 26 28 13 25 -14 -4z"/>
<path d="M3575 3200 c3 -5 8 -10 11 -10 2 0 4 5 4 10 0 6 -5 10 -11 10 -5 0 -7 -4 -4 -10z"/>
<path d="M3628 3203 c6 -2 18 -2 25 0 6 3 1 5 -13 5 -14 0 -19 -2 -12 -5z"/>
<path d="M3401 2831 c-8 -5 -9 -11 -3 -15 5 -3 12 1 16 9 6 17 6 18 -13 6z"/>
<path d="M3570 3026 c0 -2 15 -9 33 -15 29 -10 30 -9 13 4 -18 14 -46 20 -46 11z"/>
<path d="M1305 3651 c-6 -11 9 -23 19 -14 9 9 7 23 -3 23 -6 0 -12 -4 -16 -9z"/>
<path d="M1550 3586 c0 -8 51 -13 56 -5 3 5 -9 9 -25 9 -17 0 -31 -2 -31 -4z"/>
<path d="M1620 3580 c0 -5 5 -10 11 -10 5 0 7 5 4 10 -3 6 -8 10 -11 10 -2 0 -4 -4 -4 -10z"/>
<path d="M1558 3543 c7 -3 16 -2 19 1 4 3 -2 6 -13 5 -11 0 -14 -3 -6 -6z"/>
<path d="M1815 3530 c10 -11 20 -20 23 -20 3 0 -3 9 -13 20 -10 11 -20 20 -23 20 -3 0 3 -9 13 -20z"/>
<path d="M1479 3503 c-13 -16 -12 -17 4 -4 9 7 17 15 17 17 0 8 -8 3 -21 -13z"/>
<path d="M5130 3660 c8 -5 20 -10 25 -10 6 0 3 5 -5 10 -8 5 -19 10 -25 10 -5 0 -3 -5 5 -10z"/>
<path d="M5072 3651 c2 -7 7 -12 11 -12 12 1 9 15 -3 20 -7 2 -11 -2 -8 -8z"/>
<path d="M5070 3576 c0 -2 8 -10 18 -17 15 -13 16 -12 3 4 -13 16 -21 21 -21 13z"/>
<path d="M4600 3471 c-19 -11 -38 -17 -41 -15 -4 2 -12 -3 -18 -10 -9 -11 -9 -14 1 -12 18 3 115 55 103 55 -5 0 -26 -8 -45 -18z"/>
<path d="M1725 3680 c-3 -6 1 -7 9 -4 18 7 21 14 7 14 -6 0 -13 -4 -16 -10z"/>
<path d="M4619 3673 c-13 -16 -12 -17 4 -4 9 7 17 15 17 17 0 8 -8 3 -21 -13z"/>
<path d="M2103 3428 c-10 -17 -14 -42 -5 -33 4 4 7 12 7 18 1 7 7 11 14 9 7 -1 10 2 6 8 -8 13 -12 13 -22 -2z"/>
<path d="M2066 3414 c-8 -20 -8 -24 2 -24 4 0 8 9 9 20 2 24 -3 26 -11 4z"/>
<path d="M2310 3326 c0 -3 9 -10 20 -16 11 -6 20 -8 20 -6 0 3 -9 10 -20 16 -11 6 -20 8 -20 6z"/>
<path d="M2081 3304 c0 -11 3 -14 6 -6 3 7 2 16 -1 19 -3 4 -6 -2 -5 -13z"/>
<path d="M2420 3310 c-9 -6 -10 -10 -3 -10 6 0 15 5 18 10 8 12 4 12 -15 0z"/>
<path d="M4250 3396 c0 -2 8 -10 18 -17 15 -13 16 -12 3 4 -13 16 -21 21 -21 13z"/>
<path d="M4066 3318 c3 -5 10 -6 15 -3 13 9 11 12 -6 12 -8 0 -12 -4 -9 -9z"/>
<path d="M687 3319 c7 -7 15 -10 18 -7 3 3 -2 9 -12 12 -14 6 -15 5 -6 -5z"/>
<path d="M1551 3390 c14 -31 19 -36 19 -24 0 6 -7 19 -16 30 -14 18 -14 18 -3 -6z"/>
<path d="M1770 3326 c0 -9 82 -57 92 -54 6 2 -12 16 -40 31 -29 15 -52 25 -52 23z"/>
<path d="M1990 3185 c0 -5 5 -17 10 -25 5 -8 10 -10 10 -5 0 6 -5 17 -10 25 -5 8 -10 11 -10 5z"/>
<path d="M1980 3041 c0 -6 4 -13 10 -16 6 -3 7 1 4 9 -7 18 -14 21 -14 7z"/>
<path d="M2065 2990 c3 -5 8 -10 11 -10 2 0 4 5 4 10 0 6 -5 10 -11 10 -5 0 -7 -4 -4 -10z"/>
<path d="M2100 2929 c0 -5 5 -7 10 -4 6 3 10 8 10 11 0 2 -4 4 -10 4 -5 0 -10 -5 -10 -11z"/>
<path d="M465 3320 c10 -11 20 -20 23 -20 3 0 -3 9 -13 20 -10 11 -20 20 -23 20 -3 0 3 -9 13 -20z"/>
<path d="M6004 3308 l-19 -22 25 17 c28 19 40 21 40 7 0 -6 -15 -20 -32 -31 -28 -17 -29 -19 -8 -14 31 9 60 34 60 52 0 21 -45 15 -66 -9z"/>
<path d="M5890 3260 c-8 -5 -10 -10 -5 -10 6 0 17 5 25 10 8 5 11 10 5 10 -5 0 -17 -5 -25 -10z"/>
<path d="M5408 3324 c6 -11 19 -27 28 -35 16 -13 16 -12 6 7 -6 11 -19 27 -28 35 -16 13 -16 12 -6 -7z"/>
<path d="M4216 3272 c-3 -5 1 -9 9 -9 8 0 12 4 9 9 -3 4 -7 8 -9 8 -2 0 -6 -4 -9 -8z"/>
<path d="M2566 3258 c3 -5 10 -6 15 -3 13 9 11 12 -6 12 -8 0 -12 -4 -9 -9z"/>
<path d="M240 3225 l-23 -25 23 -25 c17 -18 33 -25 59 -24 l36 1 -40 13 c-39 13 -39 13 -10 15 30 2 30 2 5 10 -21 7 -22 8 -5 9 19 2 19 2 1 13 -18 10 -17 12 10 24 l29 12 -31 1 c-20 1 -38 -7 -54 -24z"/>
<path d="M6097 3243 c19 -3 37 -12 43 -23 9 -16 8 -19 -7 -14 -17 5 -17 5 0 -6 14 -9 15 -13 4 -24 -7 -8 -22 -16 -33 -19 -15 -4 -13 -5 7 -6 15 -1 35 9 49 24 l23 25 -23 25 c-17 19 -33 25 -59 23 l-36 -1 32 -4z"/>
<path d="M5177 3211 c-17 -6 -16 -8 6 -18 20 -9 28 -9 36 1 9 10 8 15 -5 20 -8 3 -16 6 -17 5 -1 0 -10 -4 -20 -8z m33 -11 c0 -5 -2 -10 -4 -10 -3 0 -8 5 -11 10 -3 6 -1 10 4 10 6 0 11 -4 11 -10z"/>
<path d="M870 3202 c0 -4 14 -9 31 -10 19 -2 28 2 24 8 -7 12 -55 14 -55 2z"/>
<path d="M5748 3193 c6 -2 18 -2 25 0 6 3 1 5 -13 5 -14 0 -19 -2 -12 -5z"/>
<path d="M2471 3084 c0 -11 3 -14 6 -6 3 7 2 16 -1 19 -3 4 -6 -2 -5 -13z"/>
<path d="M2350 3016 c0 -2 8 -10 18 -17 15 -13 16 -12 3 4 -13 16 -21 21 -21 13z"/>
<path d="M2439 3003 c-13 -16 -12 -17 4 -4 9 7 17 15 17 17 0 8 -8 3 -21 -13z"/>
<path d="M1415 3030 c-16 -7 -17 -9 -3 -9 9 -1 20 4 23 9 7 11 7 11 -20 0z"/>
<path d="M5905 3160 c11 -5 27 -9 35 -9 9 0 8 4 -5 9 -11 5 -27 9 -35 9 -9 0 -8 -4 5 -9z"/>
<path d="M4650 3140 c0 -5 5 -10 11 -10 5 0 7 5 4 10 -3 6 -8 10 -11 10 -2 0 -4 -4 -4 -10z"/>
<path d="M1686 3096 c4 -10 -1 -18 -10 -22 -15 -6 -15 -8 1 -27 10 -11 13 -18 8 -14 -6 3 -11 -2 -11 -12 0 -13 7 -17 24 -15 28 3 38 11 28 21 -4 4 -11 1 -16 -7 -7 -11 -9 -6 -6 18 2 17 -1 32 -6 32 -5 0 -6 5 -2 11 4 8 9 7 15 -2 6 -10 9 -11 9 -1 0 6 5 12 11 12 6 0 9 -7 6 -14 -4 -10 -1 -13 7 -10 23 9 31 -18 11 -32 -10 -8 -16 -16 -13 -20 4 -3 16 4 27 15 l21 21 -22 22 c-11 11 -31 22 -44 24 -13 1 -28 5 -33 9 -7 3 -8 0 -5 -9z"/>
<path d="M1710 3051 c0 -14 25 -20 41 -11 7 5 10 12 6 17 -5 4 -12 1 -17 -7 -7 -10 -10 -11 -10 -2 0 6 -4 12 -10 12 -5 0 -10 -4 -10 -9z"/>
<path d="M4117 3049 c4 -13 8 -18 11 -10 2 7 -1 18 -6 23 -8 8 -9 4 -5 -13z"/>
<path d="M5429 3103 c-13 -16 -12 -17 4 -4 9 7 17 15 17 17 0 8 -8 3 -21 -13z"/>
<path d="M4715 3090 c-3 -6 1 -7 9 -4 18 7 21 14 7 14 -6 0 -13 -4 -16 -10z"/>
<path d="M4550 3060 c0 -5 5 -10 11 -10 5 0 7 5 4 10 -3 6 -8 10 -11 10 -2 0 -4 -4 -4 -10z"/>
<path d="M5721 3068 c8 -7 20 -20 27 -27 7 -9 12 -10 12 -4 0 15 -28 43 -43 43 -6 0 -5 -5 4 -12z"/>
<path d="M4605 3050 c-3 -6 1 -7 9 -4 18 7 21 14 7 14 -6 0 -13 -4 -16 -10z"/>
<path d="M4546 2957 c4 -12 55 -47 68 -47 3 0 6 5 6 11 0 5 -4 7 -10 4 -5 -3 -10 -1 -10 5 0 6 -4 8 -10 5 -5 -3 -15 3 -22 15 -14 22 -30 27 -22 7z"/>
<path d="M5111 2883 c-10 -26 -10 -27 4 -9 8 11 15 23 15 28 0 15 -7 8 -19 -19z"/>
<path d="M4580 2846 c14 -14 43 -33 65 -42 51 -20 36 -5 -35 36 -51 29 -53 30 -30 6z"/>
<path d="M4828 2813 c7 -3 16 -2 19 1 4 3 -2 6 -13 5 -11 0 -14 -3 -6 -6z"/>
<path d="M4788 2803 c7 -3 16 -2 19 1 4 3 -2 6 -13 5 -11 0 -14 -3 -6 -6z"/>
<path d="M4735 2770 c3 -5 11 -10 16 -10 6 0 7 5 4 10 -3 6 -11 10 -16 10 -6 0 -7 -4 -4 -10z"/>
<path d="M5076 2761 c-4 -5 -2 -12 3 -15 5 -4 12 -2 15 3 4 5 2 12 -3 15 -5 4 -12 2 -15 -3z"/>
<path d="M5040 2739 c0 -5 5 -7 10 -4 6 3 10 8 10 11 0 2 -4 4 -10 4 -5 0 -10 -5 -10 -11z"/>
<path d="M1790 2920 c0 -5 5 -10 11 -10 5 0 7 5 4 10 -3 6 -8 10 -11 10 -2 0 -4 -4 -4 -10z"/>
<path d="M1476 2899 c5 -8 9 -17 9 -21 0 -3 4 -10 9 -15 6 -5 6 -2 1 6 -6 11 -4 13 8 8 25 -9 21 -2 -9 18 -17 11 -23 12 -18 4z"/>
<path d="M1855 2880 c-4 -6 -10 -8 -15 -5 -4 3 -13 -2 -19 -9 -21 -26 6 -26 29 -1 13 14 21 25 17 25 -3 0 -9 -5 -12 -10z"/>
<path d="M1540 2860 c8 -5 20 -10 25 -10 6 0 3 5 -5 10 -8 5 -19 10 -25 10 -5 0 -3 -5 5 -10z"/>
<path d="M1517 2849 c7 -7 15 -10 18 -7 3 3 -2 9 -12 12 -14 6 -15 5 -6 -5z"/>
<path d="M1560 2810 c14 -4 34 -8 45 -8 16 0 15 2 -5 8 -14 4 -34 8 -45 8 -16 0 -15 -2 5 -8z"/>
<path d="M1723 2785 c0 -7 6 -11 14 -8 7 3 13 6 13 8 0 2 -6 5 -13 8 -8 3 -14 -1 -14 -8z"/>
<path d="M1656 2771 c-3 -5 1 -12 10 -15 22 -8 25 -4 9 11 -8 7 -16 9 -19 4z"/>
<path d="M1306 2761 c-4 -5 -2 -12 3 -15 5 -4 12 -2 15 3 4 5 2 12 -3 15 -5 4 -12 2 -15 -3z"/>
<path d="M1345 2740 c3 -5 8 -10 11 -10 2 0 4 5 4 10 0 6 -5 10 -11 10 -5 0 -7 -4 -4 -10z"/>
<path d="M1578 2723 c7 -3 16 -2 19 1 4 3 -2 6 -13 5 -11 0 -14 -3 -6 -6z"/>
<path d="M2466 2898 c3 -5 10 -6 15 -3 13 9 11 12 -6 12 -8 0 -12 -4 -9 -9z"/>
<path d="M3910 2905 c0 -2 7 -8 15 -15 12 -10 15 -10 15 2 0 8 -7 15 -15 15 -8 0 -15 -1 -15 -2z"/>
<path d="M4020 2868 c-2 -5 -3 -11 -4 -15 -1 -5 -5 -15 -10 -23 -7 -11 -4 -11 9 2 9 9 15 22 12 30 -3 7 -6 10 -7 6z"/>
<path d="M2656 2858 c3 -5 10 -6 15 -3 13 9 11 12 -6 12 -8 0 -12 -4 -9 -9z"/>
<path d="M2018 2833 c6 -2 18 -2 25 0 6 3 1 5 -13 5 -14 0 -19 -2 -12 -5z"/>
<path d="M4324 2825 c-10 -8 -14 -14 -9 -14 6 0 19 6 29 14 11 8 15 15 10 15 -6 0 -19 -7 -30 -15z"/>
<path d="M4358 2793 c7 -3 16 -2 19 1 4 3 -2 6 -13 5 -11 0 -14 -3 -6 -6z"/>
<path d="M4276 2775 c-25 -19 -8 -19 35 0 31 13 32 14 9 14 -14 0 -34 -6 -44 -14z"/>
<path d="M5670 2765 c7 -9 15 -13 17 -11 7 7 -7 26 -19 26 -6 0 -6 -6 2 -15z"/>
<path d="M4568 2764 c6 -12 8 -25 4 -29 -4 -5 -1 -5 6 -1 7 4 21 2 30 -5 14 -11 15 -11 5 0 -6 7 -9 20 -6 29 4 10 2 13 -6 8 -6 -4 -19 -2 -28 6 -15 12 -15 11 -5 -8z"/>
<path d="M1772 2741 c-11 -7 -11 -9 0 -14 9 -3 15 1 15 9 0 8 -1 14 -1 14 -1 0 -7 -4 -14 -9z"/>
<path d="M2797 2699 c7 -7 15 -10 18 -7 3 3 -2 9 -12 12 -14 6 -15 5 -6 -5z"/>
<path d="M816 2563 c-6 -14 -5 -15 5 -6 7 7 10 15 7 18 -3 3 -9 -2 -12 -12z"/>
<path d="M3054 2514 c2 -10 9 -18 16 -16 7 2 9 -5 5 -20 -5 -21 -5 -21 6 -4 9 15 7 22 -9 39 -20 19 -21 19 -18 1z"/>
<path d="M2438 2463 c6 -2 18 -2 25 0 6 3 1 5 -13 5 -14 0 -19 -2 -12 -5z"/>
<path d="M2950 2445 c7 -8 17 -15 22 -15 5 0 3 7 -6 15 -8 8 -18 15 -22 15 -3 0 -1 -7 6 -15z"/>
<path d="M2760 2446 c0 -2 8 -10 18 -17 15 -13 16 -12 3 4 -13 16 -21 21 -21 13z"/>
<path d="M3085 2411 c-3 -12 -11 -18 -17 -15 -7 4 -8 2 -4 -4 4 -6 2 -21 -5 -33 -8 -16 -8 -20 1 -14 14 9 43 75 36 82 -2 2 -7 -5 -11 -16z"/>
<path d="M2820 2303 c-14 -7 -18 -13 -10 -13 17 0 47 17 40 23 -3 2 -16 -2 -30 -10z"/>
<path d="M2948 2303 c7 -3 16 -2 19 1 4 3 -2 6 -13 5 -11 0 -14 -3 -6 -6z"/>
<path d="M3829 2423 c-13 -16 -12 -17 4 -4 16 13 21 21 13 21 -2 0 -10 -8 -17 -17z"/>
<path d="M3549 2413 c-13 -16 -12 -17 4 -4 16 13 21 21 13 21 -2 0 -10 -8 -17 -17z"/>
<path d="M3583 2418 c-4 -7 -8 -17 -8 -23 0 -5 -7 -9 -16 -9 -9 1 -16 -5 -16 -12 0 -18 45 5 72 37 l20 24 -21 -17 c-25 -22 -41 -24 -24 -3 7 8 10 15 7 15 -3 0 -9 -6 -14 -12z"/>
<path d="M3341 2354 c26 -28 28 -29 25 -9 -3 19 -13 28 -32 31 -12 2 -10 -4 7 -22z"/>
<path d="M3613 2335 c0 -8 4 -15 9 -15 4 0 8 4 8 9 0 6 -4 12 -8 15 -5 3 -9 -1 -9 -9z"/>
<path d="M3473 2323 c9 -2 23 -2 30 0 6 3 -1 5 -18 5 -16 0 -22 -2 -12 -5z"/>
<path d="M3065 2290 c-10 -11 -13 -20 -7 -20 6 0 16 9 22 20 6 11 9 20 7 20 -2 0 -12 -9 -22 -20z"/>
<path d="M3150 2199 c-18 -32 -8 -62 23 -73 58 -21 107 24 77 71 -10 15 -11 14 -7 -10 4 -28 -5 -39 -36 -44 -12 -2 -16 1 -11 9 6 10 5 10 -7 1 -26 -21 -43 0 -31 36 12 35 8 41 -8 10z"/>
<path d="M3115 2230 c-4 -12 -9 -19 -12 -16 -3 3 -14 1 -24 -5 -15 -8 -17 -6 -12 8 5 14 3 16 -7 6 -17 -15 -5 -45 16 -41 19 3 61 55 52 64 -4 3 -9 -4 -13 -16z"/>
<path d="M3325 2290 c10 -11 20 -20 23 -20 3 0 -3 9 -13 20 -10 11 -20 20 -23 20 -3 0 3 -9 13 -20z"/>
<path d="M1691 3921 c-17 -31 -13 -35 9 -10 10 13 19 18 20 12 0 -7 7 -13 16 -13 23 0 11 24 -14 28 -13 2 -25 -4 -31 -17z"/>
<path d="M4820 3873 c34 -7 50 -21 43 -40 -4 -10 -2 -14 7 -11 7 2 14 12 16 22 3 19 -33 37 -69 35 -19 -2 -19 -2 3 -6z"/>
<path d="M1480 3840 c-9 -6 -10 -10 -3 -10 6 0 15 5 18 10 8 12 4 12 -15 0z"/>
<path d="M4950 3840 c-9 -6 -10 -10 -3 -10 6 0 15 5 18 10 8 12 4 12 -15 0z"/>
<path d="M2399 3793 c-13 -17 -13 -17 6 -3 11 8 22 16 24 17 2 2 0 3 -6 3 -6 0 -17 -8 -24 -17z"/>
<path d="M5430 3722 c0 -21 47 -62 73 -62 33 0 54 26 40 48 -13 22 -47 22 -51 0 -2 -10 2 -18 8 -18 6 0 9 4 5 9 -9 16 12 22 24 7 8 -10 8 -16 -4 -26 -22 -18 -62 -4 -79 28 -9 15 -15 21 -16 14z"/>
<path d="M5462 2724 c-12 -8 -22 -20 -22 -26 0 -6 10 -2 23 10 37 35 97 23 67 -13 -13 -16 -34 -10 -25 6 4 5 1 9 -5 9 -6 0 -10 -8 -8 -17 4 -23 38 -23 51 -1 25 38 -37 63 -81 32z"/>
<path d="M4015 2630 c-3 -6 1 -7 9 -4 18 7 21 14 7 14 -6 0 -13 -4 -16 -10z"/>
<path d="M2205 2610 c-3 -6 1 -7 9 -4 18 7 21 14 7 14 -6 0 -13 -4 -16 -10z"/>
<path d="M3969 2618 c-5 -18 -6 -38 -1 -34 7 8 12 36 6 36 -2 0 -4 -1 -5 -2z"/>
<path d="M2290 2601 c0 -5 9 -7 20 -4 11 3 20 7 20 9 0 2 -9 4 -20 4 -11 0 -20 -4 -20 -9z"/>
<path d="M2410 2606 c0 -2 8 -10 18 -17 15 -13 16 -12 3 4 -13 16 -21 21 -21 13z"/>
<path d="M4527 2581 c-20 -10 -37 -14 -37 -9 0 6 -6 8 -14 5 -7 -3 -19 0 -25 6 -8 8 -14 8 -23 -1 -6 -6 -8 -15 -4 -19 4 -4 11 -1 16 7 8 13 10 12 10 -2 0 -9 -8 -22 -17 -27 -10 -6 -13 -11 -7 -11 5 0 15 5 21 11 8 8 13 8 17 0 10 -16 -4 -33 -21 -27 -8 3 -12 2 -9 -3 16 -25 -78 -17 -110 10 -17 14 -18 5 -2 -20 13 -22 3 -56 -13 -45 -8 4 -9 3 -5 -4 13 -21 36 -13 36 11 0 22 4 23 50 23 46 -1 54 2 87 38 55 58 131 84 161 54 17 -17 15 -39 -3 -32 -10 4 -15 0 -15 -11 0 -29 35 -13 38 18 3 28 4 28 29 12 14 -10 22 -12 19 -6 -10 16 -2 14 36 -8 58 -34 91 -35 148 -6 41 21 55 24 66 14 8 -7 14 -7 14 -1 0 18 -31 22 -61 7 -26 -14 -29 -14 -29 0 0 8 -5 15 -10 15 -6 0 -10 -8 -8 -17 5 -32 -59 -28 -133 7 -76 36 -146 40 -202 11z m-37 -25 c0 -3 -4 -8 -10 -11 -5 -3 -10 -1 -10 4 0 6 5 11 10 11 6 0 10 -2 10 -4z"/>
<path d="M1435 2560 c-3 -6 1 -7 9 -4 18 7 21 14 7 14 -6 0 -13 -4 -16 -10z"/>
<path d="M1470 2566 c0 -2 7 -7 16 -10 8 -3 12 -2 9 4 -6 10 -25 14 -25 6z"/>
<path d="M4701 2488 c-9 -15 -16 -18 -18 -10 -3 6 -11 12 -20 12 -22 0 -10 -24 14 -28 21 -3 47 20 41 38 -2 6 -9 0 -17 -12z"/>
</g>
</svg>
